<svg width="144" height="36" viewBox="0 0 144 36" fill="none" xmlns="http://www.w3.org/2000/svg">
<rect x="1" y="1" width="142" height="34" stroke="black" stroke-width="2"/>
<path d="M29.6565 14.36L25.7565 18.824L21.8565 14.36H21.5565V23H23.4765V18.656L25.6605 21.464H25.8645L28.0365 18.68V23H29.9685V14.36H29.6565ZM33.9548 21.344V19.34H37.1948V17.744H33.9548V16.136H37.6148V14.48H31.9628V23H37.6388V21.344H33.9548ZM44.6379 14.48V17.708H41.3259V14.48H39.3339V23H41.3259V19.388H44.6379V23H46.6419V14.48H44.6379ZM53.3189 23H55.5869L53.6789 19.94C54.7469 19.472 55.3109 18.536 55.3109 17.228C55.3109 15.32 54.1109 14.36 51.6389 14.36C51.0269 14.36 49.3349 14.42 48.6269 14.48V23H50.6189V20.228C50.9789 20.264 51.3509 20.288 51.7109 20.288L53.3189 23ZM50.6189 15.944C50.9189 15.92 51.2069 15.908 51.3989 15.908C52.7909 15.908 53.3549 16.28 53.3549 17.228C53.3549 18.212 52.7309 18.752 51.5429 18.752C51.2549 18.752 50.9189 18.716 50.6189 18.692V15.944ZM61.4939 21.344V19.34H64.7339V17.744H61.4939V16.136H65.1539V14.48H59.5019V23H65.1779V21.344H61.4939ZM71.565 23H73.833L71.925 19.94C72.993 19.472 73.557 18.536 73.557 17.228C73.557 15.32 72.357 14.36 69.885 14.36C69.273 14.36 67.581 14.42 66.873 14.48V23H68.865V20.228C69.225 20.264 69.597 20.288 69.957 20.288L71.565 23ZM68.865 15.944C69.165 15.92 69.453 15.908 69.645 15.908C71.037 15.908 71.601 16.28 71.601 17.228C71.601 18.212 70.977 18.752 69.789 18.752C69.501 18.752 69.165 18.716 68.865 18.692V15.944ZM80.7825 16.136V14.48H75.3105V23H77.3025V19.34H80.3505V17.744H77.3025V16.136H80.7825ZM86.9399 23H89.0159L84.9479 14.312H84.4559L80.3759 23H82.4519L82.9919 21.692H86.3999L86.9399 23ZM83.5919 20.24L84.6959 17.576L85.7999 20.24H83.5919ZM95.4387 14.48V17.708H92.1267V14.48H90.1347V23H92.1267V19.388H95.4387V23H97.4427V14.48H95.4387ZM104.12 23H106.388L104.48 19.94C105.548 19.472 106.112 18.536 106.112 17.228C106.112 15.32 104.912 14.36 102.44 14.36C101.828 14.36 100.136 14.42 99.4276 14.48V23H101.42V20.228C101.78 20.264 102.152 20.288 102.512 20.288L104.12 23ZM101.42 15.944C101.72 15.92 102.008 15.908 102.2 15.908C103.592 15.908 104.156 16.28 104.156 17.228C104.156 18.212 103.532 18.752 102.344 18.752C102.056 18.752 101.72 18.716 101.42 18.692V15.944ZM109.857 21.344V19.34H113.097V17.744H109.857V16.136H113.517V14.48H107.865V23H113.541V21.344H109.857ZM120.468 14.48V19.148L115.392 14.312H115.236V23H117.216V18.344L122.268 23.168H122.448V14.48H120.468Z" fill="black"/>
</svg>
