<svg width="217" height="22" viewBox="0 0 217 22" fill="none" xmlns="http://www.w3.org/2000/svg">
<path d="M1.55 0.9H0.94V8H1.55V0.9ZM2.34 4.19L5.5 0.9H4.73L1.63 4.13V4.25L5.12 8H5.88L2.34 4.19ZM8.72563 2.87C7.90563 2.87 7.35563 3.2 6.95562 3.68V3.63L6.88562 2.97H6.35562V8H6.95562V4.36C7.30563 3.77 7.85562 3.44 8.58563 3.44C8.73562 3.44 8.87562 3.45 8.97563 3.47L9.09563 2.89C9.00563 2.88 8.87562 2.87 8.72563 2.87ZM11.2762 2.87C10.5462 2.87 9.94617 3.06 9.56617 3.28L9.71617 3.74C10.0462 3.56 10.5662 3.39 11.2162 3.39C12.1362 3.39 12.5862 3.75 12.5862 4.7V5.13C12.2162 5.01 11.7762 4.92 11.2562 4.92C9.86617 4.92 9.02617 5.48 9.02617 6.58C9.02617 7.5 9.71617 8.1 10.7662 8.1C11.7062 8.1 12.2662 7.68 12.5862 7.39L12.6462 8H13.1862V4.61C13.1862 3.4 12.4762 2.87 11.2762 2.87ZM10.8762 7.61C10.1562 7.61 9.62617 7.25 9.62617 6.58C9.62617 5.79 10.2662 5.42 11.2662 5.42C11.7962 5.42 12.2062 5.5 12.5862 5.62V6.81C12.2262 7.19 11.7162 7.61 10.8762 7.61ZM15.9477 0.909999C16.2477 0.909999 16.5477 0.98 16.7177 1.04L16.8777 0.589999C16.6477 0.49 16.2777 0.399999 15.8977 0.399999C14.9677 0.399999 14.4077 0.98 14.4077 2.1V2.97H13.8077L13.7277 3.49H14.4077V8H15.0077V3.49H16.4777V2.97H15.0077V2.17C15.0077 1.61 15.1177 0.909999 15.9477 0.909999ZM19.4366 7.53C19.2866 7.57 19.1066 7.59 18.9266 7.59C18.0966 7.59 17.9866 6.89 17.9866 6.33V3.49H19.4566V2.97H17.9866V1.6L17.3866 1.67V2.97H16.7866L16.7066 3.49H17.3866V6.4C17.3866 7.52 17.9466 8.1 18.8766 8.1C19.1166 8.1 19.3666 8.06 19.5566 8.01L19.4366 7.53ZM21.7102 8.1C22.7902 8.1 23.4802 7.61 23.4802 6.76C23.4802 5.88 22.7702 5.54 22.0702 5.22L21.6902 5.04C21.2702 4.85 20.7702 4.57 20.7702 4.11C20.7702 3.64 21.1802 3.39 21.7902 3.39C22.2502 3.39 22.6602 3.53 22.9502 3.69L23.2302 3.24C22.8702 3.02 22.3602 2.87 21.7802 2.87C20.7302 2.87 20.1702 3.37 20.1702 4.13C20.1702 4.89 20.8402 5.26 21.4602 5.55L21.8302 5.73C22.4302 6.01 22.8702 6.24 22.8702 6.77C22.8702 7.31 22.3902 7.58 21.7002 7.58C21.0902 7.58 20.6702 7.35 20.4002 7.17L20.1102 7.61C20.4302 7.85 20.9802 8.1 21.7102 8.1ZM26.537 7.53C26.387 7.57 26.207 7.59 26.027 7.59C25.197 7.59 25.087 6.89 25.087 6.33V3.49H26.557V2.97H25.087V1.6L24.487 1.67V2.97H23.887L23.807 3.49H24.487V6.4C24.487 7.52 25.047 8.1 25.977 8.1C26.217 8.1 26.467 8.06 26.657 8.01L26.537 7.53ZM29.5292 8.1C31.0992 8.1 32.1292 6.95 32.1292 5.5C32.1292 4.02 31.0992 2.87 29.5292 2.87C27.9592 2.87 26.9392 4.02 26.9392 5.5C26.9392 6.95 27.9592 8.1 29.5292 8.1ZM29.5292 7.58C28.3192 7.58 27.5392 6.65 27.5392 5.5C27.5392 4.32 28.3192 3.39 29.5292 3.39C30.7492 3.39 31.5192 4.32 31.5192 5.5C31.5192 6.65 30.7492 7.58 29.5292 7.58ZM37.769 0.909999C38.079 0.909999 38.369 0.98 38.539 1.04L38.699 0.589999C38.479 0.49 38.099 0.399999 37.719 0.399999C36.799 0.399999 36.239 0.98 36.239 2.1V2.97H33.789V2.17C33.789 1.61 33.899 0.909999 34.729 0.909999C35.029 0.909999 35.329 0.98 35.499 1.04L35.659 0.589999C35.429 0.49 35.059 0.399999 34.679 0.399999C33.749 0.399999 33.189 0.98 33.189 2.1V2.97H32.589L32.509 3.49H33.189V8H33.789V3.49H36.239V8H36.839V3.49H38.309V2.97H36.839V2.17C36.839 1.61 36.939 0.909999 37.769 0.909999ZM42.495 2.97L40.765 6.99L39.035 2.97H38.415L40.745 8.18H40.795L43.125 2.97H42.495ZM47.8618 5.34C47.8618 3.53 46.7118 2.87 45.5618 2.87C44.1118 2.87 43.1318 3.96 43.1318 5.47C43.1318 7.07 44.2318 8.1 45.7018 8.1C46.4618 8.1 47.1218 7.82 47.5318 7.44L47.2018 7.03C46.8818 7.32 46.3618 7.58 45.7218 7.58C44.5518 7.58 43.7618 6.76 43.7218 5.54H47.8618V5.34ZM45.5518 3.39C46.4218 3.39 47.1818 3.86 47.2418 5.02H43.7518C43.9018 4.01 44.5818 3.39 45.5518 3.39ZM51.1709 2.87C50.3509 2.87 49.8009 3.2 49.4009 3.68V3.63L49.3309 2.97H48.8009V8H49.4009V4.36C49.7509 3.77 50.3009 3.44 51.0309 3.44C51.1809 3.44 51.3209 3.45 51.4209 3.47L51.5409 2.89C51.4509 2.88 51.3209 2.87 51.1709 2.87ZM54.5119 2.87C53.7619 2.87 53.1719 3.15 52.7619 3.48V0.399999L52.1619 0.47V8H52.7119L52.7519 7.39C53.1619 7.8 53.7819 8.1 54.4619 8.1C55.8219 8.1 56.8419 7.06 56.8419 5.41C56.8419 3.77 55.8019 2.87 54.5119 2.87ZM54.3419 7.57C53.6919 7.57 53.1819 7.28 52.7619 6.82V3.97C53.0419 3.74 53.5719 3.39 54.3719 3.39C55.5419 3.39 56.2319 4.19 56.2319 5.41C56.2319 6.72 55.5119 7.57 54.3419 7.57ZM60.078 2.87C59.258 2.87 58.708 3.2 58.308 3.68V3.63L58.238 2.97H57.708V8H58.308V4.36C58.658 3.77 59.208 3.44 59.938 3.44C60.088 3.44 60.228 3.45 60.328 3.47L60.448 2.89C60.358 2.88 60.228 2.87 60.078 2.87ZM62.6285 2.87C61.8985 2.87 61.2985 3.06 60.9185 3.28L61.0685 3.74C61.3985 3.56 61.9185 3.39 62.5685 3.39C63.4885 3.39 63.9385 3.75 63.9385 4.7V5.13C63.5685 5.01 63.1285 4.92 62.6085 4.92C61.2185 4.92 60.3785 5.48 60.3785 6.58C60.3785 7.5 61.0685 8.1 62.1185 8.1C63.0585 8.1 63.6185 7.68 63.9385 7.39L63.9985 8H64.5385V4.61C64.5385 3.4 63.8285 2.87 62.6285 2.87ZM62.2285 7.61C61.5085 7.61 60.9785 7.25 60.9785 6.58C60.9785 5.79 61.6185 5.42 62.6185 5.42C63.1485 5.42 63.5585 5.5 63.9385 5.62V6.81C63.5785 7.19 63.0685 7.61 62.2285 7.61ZM69.3201 2.97V6.82C68.9901 7.15 68.3801 7.57 67.5701 7.57C66.7101 7.57 66.1201 7.16 66.1201 6.11V2.97H65.5201V6.19C65.5201 7.52 66.3401 8.1 67.4401 8.1C68.4201 8.1 68.9601 7.7 69.3201 7.39L69.3801 8H69.9201V2.97H69.3201ZM75.1904 7.44L74.8504 7.03C74.5304 7.31 74.0204 7.58 73.3804 7.58C72.1704 7.58 71.3904 6.67 71.3904 5.5C71.3904 4.3 72.1704 3.39 73.3804 3.39C74.0304 3.39 74.5004 3.64 74.8504 3.94L75.1904 3.53C74.7404 3.12 74.1204 2.87 73.3804 2.87C71.8104 2.87 70.7904 4.02 70.7904 5.5C70.7904 6.95 71.8104 8.1 73.3804 8.1C74.1404 8.1 74.7604 7.83 75.1904 7.44ZM78.5705 2.87C77.7105 2.87 77.0605 3.24 76.6505 3.55V0.399999L76.0505 0.47V8H76.6505V4.05C76.9905 3.78 77.6405 3.36 78.4305 3.36C79.3005 3.36 79.9005 3.81 79.9005 4.86V8H80.5005V4.78C80.5005 3.45 79.6705 2.87 78.5705 2.87ZM86.9472 4.12C87.5972 3.84 87.9772 3.33 87.9772 2.58C87.9772 1.69 87.4372 0.85 85.5872 0.85C85.0472 0.85 84.1872 0.86 83.4572 0.9V8C84.0472 8.03 84.8072 8.05 85.6172 8.05C87.5072 8.05 88.4572 7.23 88.4572 5.9C88.4572 4.95 87.8872 4.35 86.9472 4.12ZM84.0672 1.42C84.4572 1.4 85.0572 1.39 85.5872 1.39C86.8472 1.39 87.3572 1.84 87.3572 2.63C87.3572 3.39 86.8972 3.97 85.4972 3.97C85.0772 3.97 84.5672 3.96 84.0672 3.95V1.42ZM85.5772 7.51C85.0072 7.51 84.4272 7.5 84.0672 7.48V4.51C84.5672 4.49 85.1172 4.48 85.7472 4.48C87.0172 4.48 87.8472 4.94 87.8472 5.88C87.8472 6.75 87.3472 7.51 85.5772 7.51ZM93.8032 5.34C93.8032 3.53 92.6532 2.87 91.5032 2.87C90.0532 2.87 89.0732 3.96 89.0732 5.47C89.0732 7.07 90.1732 8.1 91.6432 8.1C92.4032 8.1 93.0632 7.82 93.4732 7.44L93.1432 7.03C92.8232 7.32 92.3032 7.58 91.6632 7.58C90.4932 7.58 89.7032 6.76 89.6632 5.54H93.8032V5.34ZM91.4932 3.39C92.3632 3.39 93.1232 3.86 93.1832 5.02H89.6932C89.8432 4.01 90.5232 3.39 91.4932 3.39ZM97.2623 2.87C96.3823 2.87 95.7423 3.26 95.3423 3.59L95.2723 2.97H94.7423V8H95.3423V4.08C95.6823 3.81 96.3323 3.39 97.1223 3.39C97.9923 3.39 98.5923 3.82 98.5923 4.86V8H99.1923V4.78C99.1923 3.45 98.3623 2.87 97.2623 2.87ZM103.941 2.97H100.021V3.49H103.051L99.9415 7.85V8H103.911V7.48H100.861L103.941 3.15V2.97ZM105.123 1.56C105.373 1.56 105.563 1.37 105.563 1.12C105.563 0.88 105.373 0.679999 105.123 0.679999C104.873 0.679999 104.683 0.88 104.683 1.12C104.683 1.37 104.873 1.56 105.123 1.56ZM104.823 8H105.423V2.97H104.823V8ZM109.09 2.87C108.21 2.87 107.57 3.26 107.17 3.59L107.1 2.97H106.57V8H107.17V4.08C107.51 3.81 108.16 3.39 108.95 3.39C109.82 3.39 110.42 3.82 110.42 4.86V8H111.02V4.78C111.02 3.45 110.19 2.87 109.09 2.87ZM112.539 4.28C112.789 4.28 112.989 4.09 112.989 3.84C112.989 3.59 112.789 3.39 112.539 3.39C112.289 3.39 112.099 3.59 112.099 3.84C112.099 4.09 112.289 4.28 112.539 4.28ZM112.539 8.1C112.789 8.1 112.989 7.91 112.989 7.66C112.989 7.41 112.789 7.21 112.539 7.21C112.289 7.21 112.099 7.41 112.099 7.66C112.099 7.91 112.289 8.1 112.539 8.1ZM115.918 8H116.518V0.399999L115.918 0.47V8ZM117.238 5.11L119.708 2.97H118.958L116.598 5.04V5.15L119.278 8H119.968L117.238 5.11ZM122.369 8.1C123.939 8.1 124.969 6.95 124.969 5.5C124.969 4.02 123.939 2.87 122.369 2.87C120.799 2.87 119.779 4.02 119.779 5.5C119.779 6.95 120.799 8.1 122.369 8.1ZM122.369 7.58C121.159 7.58 120.379 6.65 120.379 5.5C120.379 4.32 121.159 3.39 122.369 3.39C123.589 3.39 124.359 4.32 124.359 5.5C124.359 6.65 123.589 7.58 122.369 7.58ZM131.529 2.87C130.719 2.87 130.039 3.26 129.609 3.67C129.339 3.19 128.839 2.87 128.109 2.87C127.299 2.87 126.769 3.24 126.429 3.57L126.369 2.97H125.839V8H126.439V4.06C126.699 3.8 127.209 3.39 127.969 3.39C128.959 3.39 129.289 4.06 129.289 4.96V8H129.889V4.78C129.889 4.52 129.849 4.27 129.779 4.04C130.149 3.7 130.689 3.39 131.389 3.39C132.479 3.39 132.729 4.15 132.729 4.96V8H133.329V4.78C133.329 3.74 132.779 2.87 131.529 2.87ZM136.755 2.87C136.005 2.87 135.415 3.15 135.005 3.48V0.399999L134.405 0.47V8H134.955L134.995 7.39C135.405 7.8 136.025 8.1 136.705 8.1C138.065 8.1 139.085 7.06 139.085 5.41C139.085 3.77 138.045 2.87 136.755 2.87ZM136.585 7.57C135.935 7.57 135.425 7.28 135.005 6.82V3.97C135.285 3.74 135.815 3.39 136.615 3.39C137.785 3.39 138.475 4.19 138.475 5.41C138.475 6.72 137.755 7.57 136.585 7.57ZM140.321 1.56C140.571 1.56 140.761 1.37 140.761 1.12C140.761 0.88 140.571 0.679999 140.321 0.679999C140.071 0.679999 139.881 0.88 139.881 1.12C139.881 1.37 140.071 1.56 140.321 1.56ZM140.021 8H140.621V2.97H140.021V8ZM144.288 2.87C143.408 2.87 142.768 3.26 142.368 3.59L142.298 2.97H141.768V8H142.368V4.08C142.708 3.81 143.358 3.39 144.148 3.39C145.018 3.39 145.618 3.82 145.618 4.86V8H146.218V4.78C146.218 3.45 145.388 2.87 144.288 2.87ZM147.607 1.56C147.857 1.56 148.047 1.37 148.047 1.12C148.047 0.88 147.857 0.679999 147.607 0.679999C147.357 0.679999 147.167 0.88 147.167 1.12C147.167 1.37 147.357 1.56 147.607 1.56ZM147.307 8H147.907V2.97H147.307V8ZM153.584 5.34C153.584 3.53 152.434 2.87 151.284 2.87C149.834 2.87 148.854 3.96 148.854 5.47C148.854 7.07 149.954 8.1 151.424 8.1C152.184 8.1 152.844 7.82 153.254 7.44L152.924 7.03C152.604 7.32 152.084 7.58 151.444 7.58C150.274 7.58 149.484 6.76 149.444 5.54H153.584V5.34ZM151.274 3.39C152.144 3.39 152.904 3.86 152.964 5.02H149.474C149.624 4.01 150.304 3.39 151.274 3.39ZM156.893 2.87C156.073 2.87 155.523 3.2 155.123 3.68V3.63L155.053 2.97H154.523V8H155.123V4.36C155.473 3.77 156.023 3.44 156.753 3.44C156.903 3.44 157.043 3.45 157.143 3.47L157.263 2.89C157.173 2.88 157.043 2.87 156.893 2.87ZM160.074 7.53C159.924 7.57 159.744 7.59 159.564 7.59C158.734 7.59 158.624 6.89 158.624 6.33V3.49H160.094V2.97H158.624V1.6L158.024 1.67V2.97H157.424L157.344 3.49H158.024V6.4C158.024 7.52 158.584 8.1 159.514 8.1C159.754 8.1 160.004 8.06 160.194 8.01L160.074 7.53ZM164.786 7.46V0.9H164.686L162.466 1.79L162.656 2.29L164.176 1.75V7.46H162.556V8H166.346V7.46H164.786ZM167.488 7.22C167.248 7.22 167.058 7.41 167.058 7.65C167.058 7.83 167.158 7.98 167.308 8.05L166.958 9.3H167.298L167.838 7.98C167.878 7.88 167.928 7.76 167.928 7.65C167.928 7.41 167.728 7.22 167.488 7.22ZM171.466 3.51C170.716 3.51 170.066 3.75 169.526 4.2C169.616 2.94 170.166 1.36 171.666 1.36C172.276 1.36 172.856 1.59 173.146 1.79L173.486 1.34C173.106 1.07 172.426 0.8 171.646 0.8C169.756 0.8 168.896 2.77 168.896 4.5C168.896 6.63 169.576 8.1 171.386 8.1C172.916 8.1 173.786 7.05 173.786 5.69C173.786 4.41 172.956 3.51 171.466 3.51ZM171.406 7.54C170.106 7.54 169.576 6.51 169.516 4.87C169.886 4.49 170.576 4.06 171.446 4.06C172.526 4.06 173.156 4.67 173.156 5.7C173.156 6.7 172.586 7.54 171.406 7.54ZM177.041 8V0.399999L176.441 0.47V8H177.041ZM181.729 0.9H181.139L178.019 8H178.609L181.729 0.9ZM184.681 7.46V0.9H184.581L182.361 1.79L182.551 2.29L184.071 1.75V7.46H182.451V8H186.241V7.46H184.681ZM189.453 8.1C191.173 8.1 192.283 6.48 192.283 4.45C192.283 2.43 191.173 0.8 189.453 0.8C187.733 0.8 186.623 2.43 186.623 4.45C186.623 6.48 187.733 8.1 189.453 8.1ZM189.453 7.54C188.083 7.54 187.253 6.16 187.253 4.45C187.253 2.74 188.083 1.36 189.453 1.36C190.823 1.36 191.653 2.74 191.653 4.45C191.653 6.16 190.823 7.54 189.453 7.54ZM195.85 8.1C197.57 8.1 198.68 6.48 198.68 4.45C198.68 2.43 197.57 0.8 195.85 0.8C194.13 0.8 193.02 2.43 193.02 4.45C193.02 6.48 194.13 8.1 195.85 8.1ZM195.85 7.54C194.48 7.54 193.65 6.16 193.65 4.45C193.65 2.74 194.48 1.36 195.85 1.36C197.22 1.36 198.05 2.74 198.05 4.45C198.05 6.16 197.22 7.54 195.85 7.54ZM201.375 8H201.975V0.399999L201.375 0.47V8ZM202.695 5.11L205.165 2.97H204.415L202.055 5.04V5.15L204.735 8H205.425L202.695 5.11ZM211.654 2.87C210.844 2.87 210.164 3.26 209.734 3.67C209.464 3.19 208.964 2.87 208.234 2.87C207.424 2.87 206.894 3.24 206.554 3.57L206.494 2.97H205.964V8H206.564V4.06C206.824 3.8 207.334 3.39 208.094 3.39C209.084 3.39 209.414 4.06 209.414 4.96V8H210.014V4.78C210.014 4.52 209.974 4.27 209.904 4.04C210.274 3.7 210.814 3.39 211.514 3.39C212.604 3.39 212.854 4.15 212.854 4.96V8H213.454V4.78C213.454 3.74 212.904 2.87 211.654 2.87ZM215.03 4.28C215.28 4.28 215.48 4.09 215.48 3.84C215.48 3.59 215.28 3.39 215.03 3.39C214.78 3.39 214.59 3.59 214.59 3.84C214.59 4.09 214.78 4.28 215.03 4.28ZM215.07 7.22C214.83 7.22 214.64 7.41 214.64 7.65C214.64 7.83 214.74 7.98 214.89 8.05L214.54 9.3H214.88L215.42 7.98C215.46 7.88 215.51 7.76 215.51 7.65C215.51 7.41 215.31 7.22 215.07 7.22ZM4.19 20.1C5.18 20.1 6.03 19.72 6.61 19.17L6.24 18.76C5.71 19.23 5.02 19.54 4.19 19.54C2.43 19.54 1.26 18.13 1.26 16.45C1.26 14.77 2.43 13.36 4.19 13.36C4.96 13.36 5.63 13.63 6.14 14.06L6.51 13.64C5.92 13.12 5.1 12.8 4.19 12.8C2.09 12.8 0.64 14.44 0.64 16.45C0.64 18.46 2.09 20.1 4.19 20.1ZM10.7429 20.1C12.8229 20.1 14.2829 18.46 14.2829 16.45C14.2829 14.44 12.8229 12.8 10.7429 12.8C8.66289 12.8 7.20289 14.44 7.20289 16.45C7.20289 18.46 8.66289 20.1 10.7429 20.1ZM10.7429 19.54C8.99289 19.54 7.82289 18.13 7.82289 16.45C7.82289 14.77 8.99289 13.36 10.7429 13.36C12.4929 13.36 13.6629 14.77 13.6629 16.45C13.6629 18.13 12.4929 19.54 10.7429 19.54ZM17.5823 21.3H14.7623V20.76L15.9123 19.64C16.1856 19.38 16.3889 19.17 16.5223 19.01C16.6623 18.8433 16.7556 18.6967 16.8023 18.57C16.8556 18.4367 16.8823 18.2967 16.8823 18.15C16.8823 17.9367 16.8189 17.7767 16.6923 17.67C16.5723 17.5633 16.4123 17.51 16.2123 17.51C16.0123 17.51 15.8289 17.55 15.6623 17.63C15.5023 17.7033 15.3356 17.8067 15.1623 17.94L14.8123 17.48C15.0056 17.3133 15.2156 17.18 15.4423 17.08C15.6756 16.98 15.9356 16.93 16.2223 16.93C16.6489 16.93 16.9823 17.0367 17.2223 17.25C17.4689 17.4567 17.5923 17.7433 17.5923 18.11C17.5923 18.4367 17.4923 18.73 17.2923 18.99C17.0989 19.25 16.8156 19.5567 16.4423 19.91L15.6323 20.68H17.5823V21.3ZM18.3184 17.11V17.62H21.5184V17.11H18.3184ZM23.368 19.46V16.53H26.638V15.98H23.368V13.44H26.878V12.9H22.758V20H26.908V19.46H23.368ZM33.5316 14.87C32.7216 14.87 32.0416 15.26 31.6116 15.67C31.3416 15.19 30.8416 14.87 30.1116 14.87C29.3016 14.87 28.7716 15.24 28.4316 15.57L28.3716 14.97H27.8416V20H28.4416V16.06C28.7016 15.8 29.2116 15.39 29.9716 15.39C30.9616 15.39 31.2916 16.06 31.2916 16.96V20H31.8916V16.78C31.8916 16.52 31.8516 16.27 31.7816 16.04C32.1516 15.7 32.6916 15.39 33.3916 15.39C34.4816 15.39 34.7316 16.15 34.7316 16.96V20H35.3316V16.78C35.3316 15.74 34.7816 14.87 33.5316 14.87ZM36.7276 13.56C36.9776 13.56 37.1676 13.37 37.1676 13.12C37.1676 12.88 36.9776 12.68 36.7276 12.68C36.4776 12.68 36.2876 12.88 36.2876 13.12C36.2876 13.37 36.4776 13.56 36.7276 13.56ZM36.4276 20H37.0276V14.97H36.4276V20ZM39.4844 20.1C40.5644 20.1 41.2544 19.61 41.2544 18.76C41.2544 17.88 40.5444 17.54 39.8444 17.22L39.4644 17.04C39.0444 16.85 38.5444 16.57 38.5444 16.11C38.5444 15.64 38.9544 15.39 39.5644 15.39C40.0244 15.39 40.4344 15.53 40.7244 15.69L41.0044 15.24C40.6444 15.02 40.1344 14.87 39.5544 14.87C38.5044 14.87 37.9444 15.37 37.9444 16.13C37.9444 16.89 38.6144 17.26 39.2344 17.55L39.6044 17.73C40.2044 18.01 40.6444 18.24 40.6444 18.77C40.6444 19.31 40.1644 19.58 39.4744 19.58C38.8644 19.58 38.4444 19.35 38.1744 19.17L37.8844 19.61C38.2044 19.85 38.7544 20.1 39.4844 20.1ZM43.3812 20.1C44.4612 20.1 45.1512 19.61 45.1512 18.76C45.1512 17.88 44.4412 17.54 43.7412 17.22L43.3612 17.04C42.9412 16.85 42.4412 16.57 42.4412 16.11C42.4412 15.64 42.8512 15.39 43.4612 15.39C43.9212 15.39 44.3312 15.53 44.6212 15.69L44.9012 15.24C44.5412 15.02 44.0312 14.87 43.4512 14.87C42.4012 14.87 41.8412 15.37 41.8412 16.13C41.8412 16.89 42.5112 17.26 43.1312 17.55L43.5012 17.73C44.1012 18.01 44.5412 18.24 44.5412 18.77C44.5412 19.31 44.0612 19.58 43.3712 19.58C42.7612 19.58 42.3412 19.35 42.0712 19.17L41.7812 19.61C42.1012 19.85 42.6512 20.1 43.3812 20.1ZM46.3381 13.56C46.5881 13.56 46.7781 13.37 46.7781 13.12C46.7781 12.88 46.5881 12.68 46.3381 12.68C46.0881 12.68 45.8981 12.88 45.8981 13.12C45.8981 13.37 46.0881 13.56 46.3381 13.56ZM46.0381 20H46.6381V14.97H46.0381V20ZM50.1749 20.1C51.7449 20.1 52.7749 18.95 52.7749 17.5C52.7749 16.02 51.7449 14.87 50.1749 14.87C48.6049 14.87 47.5849 16.02 47.5849 17.5C47.5849 18.95 48.6049 20.1 50.1749 20.1ZM50.1749 19.58C48.9649 19.58 48.1849 18.65 48.1849 17.5C48.1849 16.32 48.9649 15.39 50.1749 15.39C51.3949 15.39 52.1649 16.32 52.1649 17.5C52.1649 18.65 51.3949 19.58 50.1749 19.58ZM56.1647 14.87C55.2847 14.87 54.6447 15.26 54.2447 15.59L54.1747 14.97H53.6447V20H54.2447V16.08C54.5847 15.81 55.2347 15.39 56.0247 15.39C56.8947 15.39 57.4947 15.82 57.4947 16.86V20H58.0947V16.78C58.0947 15.45 57.2647 14.87 56.1647 14.87ZM63.6438 17.34C63.6438 15.53 62.4938 14.87 61.3438 14.87C59.8938 14.87 58.9138 15.96 58.9138 17.47C58.9138 19.07 60.0138 20.1 61.4838 20.1C62.2438 20.1 62.9038 19.82 63.3138 19.44L62.9838 19.03C62.6638 19.32 62.1438 19.58 61.5038 19.58C60.3338 19.58 59.5438 18.76 59.5038 17.54H63.6438V17.34ZM61.3338 15.39C62.2038 15.39 62.9638 15.86 63.0238 17.02H59.5338C59.6838 16.01 60.3638 15.39 61.3338 15.39ZM67.103 14.87C66.223 14.87 65.583 15.26 65.183 15.59L65.113 14.97H64.583V20H65.183V16.08C65.523 15.81 66.173 15.39 66.963 15.39C67.833 15.39 68.433 15.82 68.433 16.86V20H69.033V16.78C69.033 15.45 68.203 14.87 67.103 14.87ZM70.5521 16.28C70.8021 16.28 71.0021 16.09 71.0021 15.84C71.0021 15.59 70.8021 15.39 70.5521 15.39C70.3021 15.39 70.1121 15.59 70.1121 15.84C70.1121 16.09 70.3021 16.28 70.5521 16.28ZM70.5521 20.1C70.8021 20.1 71.0021 19.91 71.0021 19.66C71.0021 19.41 70.8021 19.21 70.5521 19.21C70.3021 19.21 70.1121 19.41 70.1121 19.66C70.1121 19.91 70.3021 20.1 70.5521 20.1ZM73.931 20H74.531V12.4L73.931 12.47V20ZM75.251 17.11L77.721 14.97H76.971L74.611 17.04V17.15L77.291 20H77.981L75.251 17.11ZM80.3827 20.1C81.9527 20.1 82.9827 18.95 82.9827 17.5C82.9827 16.02 81.9527 14.87 80.3827 14.87C78.8127 14.87 77.7927 16.02 77.7927 17.5C77.7927 18.95 78.8127 20.1 80.3827 20.1ZM80.3827 19.58C79.1727 19.58 78.3927 18.65 78.3927 17.5C78.3927 16.32 79.1727 15.39 80.3827 15.39C81.6027 15.39 82.3727 16.32 82.3727 17.5C82.3727 18.65 81.6027 19.58 80.3827 19.58ZM89.5425 14.87C88.7325 14.87 88.0525 15.26 87.6225 15.67C87.3525 15.19 86.8525 14.87 86.1225 14.87C85.3125 14.87 84.7825 15.24 84.4425 15.57L84.3825 14.97H83.8525V20H84.4525V16.06C84.7125 15.8 85.2225 15.39 85.9825 15.39C86.9725 15.39 87.3025 16.06 87.3025 16.96V20H87.9025V16.78C87.9025 16.52 87.8625 16.27 87.7925 16.04C88.1625 15.7 88.7025 15.39 89.4025 15.39C90.4925 15.39 90.7425 16.15 90.7425 16.96V20H91.3425V16.78C91.3425 15.74 90.7925 14.87 89.5425 14.87ZM94.7685 14.87C94.0185 14.87 93.4285 15.15 93.0185 15.48V12.4L92.4185 12.47V20H92.9685L93.0085 19.39C93.4185 19.8 94.0385 20.1 94.7185 20.1C96.0785 20.1 97.0985 19.06 97.0985 17.41C97.0985 15.77 96.0585 14.87 94.7685 14.87ZM94.5985 19.57C93.9485 19.57 93.4385 19.28 93.0185 18.82V15.97C93.2985 15.74 93.8285 15.39 94.6285 15.39C95.7985 15.39 96.4885 16.19 96.4885 17.41C96.4885 18.72 95.7685 19.57 94.5985 19.57ZM98.3346 13.56C98.5846 13.56 98.7746 13.37 98.7746 13.12C98.7746 12.88 98.5846 12.68 98.3346 12.68C98.0846 12.68 97.8946 12.88 97.8946 13.12C97.8946 13.37 98.0846 13.56 98.3346 13.56ZM98.0346 20H98.6346V14.97H98.0346V20ZM102.301 14.87C101.421 14.87 100.781 15.26 100.381 15.59L100.311 14.97H99.7814V20H100.381V16.08C100.721 15.81 101.371 15.39 102.161 15.39C103.031 15.39 103.631 15.82 103.631 16.86V20H104.231V16.78C104.231 15.45 103.401 14.87 102.301 14.87ZM105.621 13.56C105.871 13.56 106.061 13.37 106.061 13.12C106.061 12.88 105.871 12.68 105.621 12.68C105.371 12.68 105.181 12.88 105.181 13.12C105.181 13.37 105.371 13.56 105.621 13.56ZM105.321 20H105.921V14.97H105.321V20ZM111.597 17.34C111.597 15.53 110.447 14.87 109.297 14.87C107.847 14.87 106.867 15.96 106.867 17.47C106.867 19.07 107.967 20.1 109.437 20.1C110.197 20.1 110.857 19.82 111.267 19.44L110.937 19.03C110.617 19.32 110.097 19.58 109.457 19.58C108.287 19.58 107.497 18.76 107.457 17.54H111.597V17.34ZM109.287 15.39C110.157 15.39 110.917 15.86 110.977 17.02H107.487C107.637 16.01 108.317 15.39 109.287 15.39ZM114.906 14.87C114.086 14.87 113.536 15.2 113.136 15.68V15.63L113.066 14.97H112.536V20H113.136V16.36C113.486 15.77 114.036 15.44 114.766 15.44C114.916 15.44 115.056 15.45 115.156 15.47L115.276 14.89C115.186 14.88 115.056 14.87 114.906 14.87ZM118.087 19.53C117.937 19.57 117.757 19.59 117.577 19.59C116.747 19.59 116.637 18.89 116.637 18.33V15.49H118.107V14.97H116.637V13.6L116.037 13.67V14.97H115.437L115.357 15.49H116.037V18.4C116.037 19.52 116.597 20.1 117.527 20.1C117.767 20.1 118.017 20.06 118.207 20.01L118.087 19.53ZM122.98 16.09C123.82 15.82 124.29 15.17 124.29 14.41C124.29 13.42 123.51 12.8 122.31 12.8C121.56 12.8 120.84 13.05 120.4 13.35L120.74 13.79C121.17 13.52 121.75 13.36 122.3 13.36C123.16 13.36 123.67 13.78 123.67 14.47C123.67 15.17 123.11 15.82 121.55 15.82H121.42V16.36H121.55C123.19 16.36 123.89 17.2 123.89 18.07C123.89 18.74 123.46 19.54 122.18 19.54C121.41 19.54 120.85 19.25 120.66 19.11L120.32 19.56C120.81 19.9 121.48 20.1 122.18 20.1C123.74 20.1 124.51 19.07 124.51 18.01C124.51 17.04 123.83 16.38 122.98 16.09ZM126.891 20.1C128.521 20.1 129.371 18.94 129.371 17.67C129.371 16.17 128.131 15.51 126.411 15.51H126.071L126.181 13.44H128.891L128.971 12.9H125.611L125.431 16.05H126.291C127.151 16.05 128.741 16.18 128.741 17.72C128.741 18.67 128.151 19.54 126.891 19.54C126.301 19.54 125.761 19.36 125.381 19.11L125.051 19.56C125.501 19.88 126.181 20.1 126.891 20.1ZM136.572 14.87L135.062 15.08C134.772 14.94 134.422 14.87 134.022 14.87C132.762 14.87 132.012 15.59 132.012 16.69C132.012 17.22 132.192 17.67 132.522 17.98C132.172 18.15 131.822 18.41 131.822 18.85C131.822 19.21 132.042 19.43 132.372 19.57C131.962 19.87 131.662 20.25 131.662 20.78C131.662 21.46 132.162 22 133.952 22C135.722 22 136.522 21.46 136.522 20.58C136.522 19.53 135.392 19.43 134.122 19.32C133.072 19.24 132.422 19.17 132.422 18.71C132.422 18.47 132.612 18.32 132.832 18.21C133.152 18.4 133.562 18.5 134.042 18.5C135.312 18.5 136.042 17.78 136.042 16.69C136.042 16.16 135.862 15.71 135.532 15.4L136.572 15.38V14.87ZM134.022 18C133.142 18 132.602 17.48 132.602 16.69C132.602 15.89 133.142 15.37 134.022 15.37C134.912 15.37 135.452 15.89 135.452 16.69C135.452 17.48 134.912 18 134.022 18ZM135.912 20.6C135.912 21.05 135.532 21.48 133.952 21.48C132.562 21.48 132.252 21.14 132.252 20.68C132.252 20.24 132.542 19.91 132.842 19.7C133.172 19.77 133.542 19.8 133.902 19.83C135.192 19.94 135.912 20.01 135.912 20.6ZM140.767 12.9H140.177L137.057 20H137.647L140.767 12.9ZM141.76 20H142.36V12.4L141.76 12.47V20ZM143.08 17.11L145.55 14.97H144.8L142.44 17.04V17.15L145.12 20H145.81L143.08 17.11ZM152.039 14.87C151.229 14.87 150.549 15.26 150.119 15.67C149.849 15.19 149.349 14.87 148.619 14.87C147.809 14.87 147.279 15.24 146.939 15.57L146.879 14.97H146.349V20H146.949V16.06C147.209 15.8 147.719 15.39 148.479 15.39C149.469 15.39 149.799 16.06 149.799 16.96V20H150.399V16.78C150.399 16.52 150.359 16.27 150.289 16.04C150.659 15.7 151.199 15.39 151.899 15.39C152.989 15.39 153.239 16.15 153.239 16.96V20H153.839V16.78C153.839 15.74 153.289 14.87 152.039 14.87ZM155.365 20.1C155.615 20.1 155.815 19.91 155.815 19.66C155.815 19.41 155.615 19.21 155.365 19.21C155.115 19.21 154.925 19.41 154.925 19.66C154.925 19.91 155.115 20.1 155.365 20.1ZM161.584 12.9H158.814V20H161.584C163.724 20 165.034 18.35 165.034 16.45C165.034 14.55 163.724 12.9 161.584 12.9ZM161.444 18.87H160.154V14.03H161.444C162.824 14.03 163.654 15.12 163.654 16.45C163.654 17.78 162.824 18.87 161.444 18.87ZM170.38 20H171.8L168.47 12.74H168.19L164.87 20H166.28L166.84 18.67H169.82L170.38 20ZM167.27 17.64L168.33 15.12L169.39 17.64H167.27ZM176.622 12.9H170.942V14.03H173.112V20H174.452V14.03H176.622V12.9ZM177.327 16.87V17.84H180.747V16.87H177.327ZM186.441 12.9V15.69H183.251V12.9H181.911V20H183.251V16.83H186.441V20H187.781V12.9H186.441ZM189.599 13.77C189.999 13.77 190.319 13.46 190.319 13.05C190.319 12.64 189.999 12.32 189.599 12.32C189.189 12.32 188.869 12.64 188.869 13.05C188.869 13.46 189.189 13.77 189.599 13.77ZM188.949 20H190.249V14.93H188.949V20ZM194.394 14.83C193.564 14.83 192.924 15.21 192.504 15.56L192.404 14.93H191.234V20H192.534V16.4C192.894 16.12 193.394 15.88 193.924 15.88C194.604 15.88 195.004 16.21 195.004 16.98V20H196.304V16.81C196.304 15.44 195.534 14.83 194.394 14.83ZM202.673 14.93L201.643 17.9L200.413 14.93H200.153L198.923 17.9L197.893 14.93H196.543L198.753 20.16H198.903L200.283 17.25L201.653 20.16H201.803L204.023 14.93H202.673ZM209.074 17.5C209.074 15.69 207.984 14.83 206.604 14.83C204.964 14.83 203.964 16.02 203.964 17.5C203.964 19.03 205.074 20.1 206.704 20.1C207.714 20.1 208.434 19.69 208.794 19.35L208.194 18.63C207.894 18.89 207.424 19.13 206.814 19.13C205.944 19.13 205.354 18.63 205.254 17.72H209.074V17.5ZM206.594 15.78C207.264 15.78 207.724 16.16 207.824 16.89H205.294C205.454 16.13 205.964 15.78 206.594 15.78ZM210.577 13.77C210.977 13.77 211.297 13.46 211.297 13.05C211.297 12.64 210.977 12.32 210.577 12.32C210.167 12.32 209.847 12.64 209.847 13.05C209.847 13.46 210.167 13.77 210.577 13.77ZM209.927 20H211.227V14.93H209.927V20ZM213.802 20.1C215.012 20.1 215.802 19.58 215.802 18.6C215.802 17.68 215.102 17.34 214.322 16.99L213.912 16.8C213.612 16.67 213.302 16.51 213.302 16.22C213.302 15.9 213.602 15.77 213.992 15.77C214.442 15.77 214.862 15.95 215.082 16.08L215.612 15.29C215.292 15.08 214.692 14.83 213.892 14.83C212.762 14.83 212.012 15.34 212.012 16.32C212.012 17.17 212.752 17.51 213.432 17.82L213.842 18.01C214.252 18.19 214.502 18.33 214.502 18.64C214.502 19 214.182 19.15 213.702 19.15C213.122 19.15 212.692 18.92 212.412 18.71L211.892 19.51C212.202 19.78 212.872 20.1 213.802 20.1Z" fill="black"/>
<path d="M157.954 21H216.192V21.5H157.954V21Z" fill="black"/>
</svg>
