<svg width="236" height="22" viewBox="0 0 236 22" fill="none" xmlns="http://www.w3.org/2000/svg">
<path d="M1.55 0.9H0.94V8H1.55V0.9ZM2.34 4.19L5.5 0.9H4.73L1.63 4.13V4.25L5.12 8H5.88L2.34 4.19ZM9.12563 2.87C8.30563 2.87 7.75563 3.2 7.35563 3.68V3.63L7.28563 2.97H6.75563V8H7.35563V4.36C7.70563 3.77 8.25563 3.44 8.98563 3.44C9.13563 3.44 9.27563 3.45 9.37563 3.47L9.49563 2.89C9.40563 2.88 9.27563 2.87 9.12563 2.87ZM12.0762 2.87C11.3462 2.87 10.7462 3.06 10.3662 3.28L10.5162 3.74C10.8462 3.56 11.3662 3.39 12.0162 3.39C12.9362 3.39 13.3862 3.75 13.3862 4.7V5.13C13.0162 5.01 12.5762 4.92 12.0562 4.92C10.6662 4.92 9.82617 5.48 9.82617 6.58C9.82617 7.5 10.5162 8.1 11.5662 8.1C12.5062 8.1 13.0662 7.68 13.3862 7.39L13.4462 8H13.9862V4.61C13.9862 3.4 13.2762 2.87 12.0762 2.87ZM11.6762 7.61C10.9562 7.61 10.4262 7.25 10.4262 6.58C10.4262 5.79 11.0662 5.42 12.0662 5.42C12.5962 5.42 13.0062 5.5 13.3862 5.62V6.81C13.0262 7.19 12.5162 7.61 11.6762 7.61ZM17.1477 0.909999C17.4477 0.909999 17.7477 0.98 17.9177 1.04L18.0777 0.589999C17.8477 0.49 17.4777 0.399999 17.0977 0.399999C16.1677 0.399999 15.6077 0.98 15.6077 2.1V2.97H15.0077L14.9277 3.49H15.6077V8H16.2077V3.49H17.6777V2.97H16.2077V2.17C16.2077 1.61 16.3177 0.909999 17.1477 0.909999ZM21.0366 7.53C20.8866 7.57 20.7066 7.59 20.5266 7.59C19.6966 7.59 19.5866 6.89 19.5866 6.33V3.49H21.0566V2.97H19.5866V1.6L18.9866 1.67V2.97H18.3866L18.3066 3.49H18.9866V6.4C18.9866 7.52 19.5466 8.1 20.4766 8.1C20.7166 8.1 20.9666 8.06 21.1566 8.01L21.0366 7.53ZM23.7102 8.1C24.7902 8.1 25.4802 7.61 25.4802 6.76C25.4802 5.88 24.7702 5.54 24.0702 5.22L23.6902 5.04C23.2702 4.85 22.7702 4.57 22.7702 4.11C22.7702 3.64 23.1802 3.39 23.7902 3.39C24.2502 3.39 24.6602 3.53 24.9502 3.69L25.2302 3.24C24.8702 3.02 24.3602 2.87 23.7802 2.87C22.7302 2.87 22.1702 3.37 22.1702 4.13C22.1702 4.89 22.8402 5.26 23.4602 5.55L23.8302 5.73C24.4302 6.01 24.8702 6.24 24.8702 6.77C24.8702 7.31 24.3902 7.58 23.7002 7.58C23.0902 7.58 22.6702 7.35 22.4002 7.17L22.1102 7.61C22.4302 7.85 22.9802 8.1 23.7102 8.1ZM28.937 7.53C28.787 7.57 28.607 7.59 28.427 7.59C27.597 7.59 27.487 6.89 27.487 6.33V3.49H28.957V2.97H27.487V1.6L26.887 1.67V2.97H26.287L26.207 3.49H26.887V6.4C26.887 7.52 27.447 8.1 28.377 8.1C28.617 8.1 28.867 8.06 29.057 8.01L28.937 7.53ZM32.3292 8.1C33.8992 8.1 34.9292 6.95 34.9292 5.5C34.9292 4.02 33.8992 2.87 32.3292 2.87C30.7592 2.87 29.7392 4.02 29.7392 5.5C29.7392 6.95 30.7592 8.1 32.3292 8.1ZM32.3292 7.58C31.1192 7.58 30.3392 6.65 30.3392 5.5C30.3392 4.32 31.1192 3.39 32.3292 3.39C33.5492 3.39 34.3192 4.32 34.3192 5.5C34.3192 6.65 33.5492 7.58 32.3292 7.58ZM40.969 0.909999C41.279 0.909999 41.569 0.98 41.739 1.04L41.899 0.589999C41.679 0.49 41.299 0.399999 40.919 0.399999C39.999 0.399999 39.439 0.98 39.439 2.1V2.97H36.989V2.17C36.989 1.61 37.099 0.909999 37.929 0.909999C38.229 0.909999 38.529 0.98 38.699 1.04L38.859 0.589999C38.629 0.49 38.259 0.399999 37.879 0.399999C36.949 0.399999 36.389 0.98 36.389 2.1V2.97H35.789L35.709 3.49H36.389V8H36.989V3.49H39.439V8H40.039V3.49H41.509V2.97H40.039V2.17C40.039 1.61 40.139 0.909999 40.969 0.909999ZM46.095 2.97L44.365 6.99L42.635 2.97H42.015L44.345 8.18H44.395L46.725 2.97H46.095ZM51.8618 5.34C51.8618 3.53 50.7118 2.87 49.5618 2.87C48.1118 2.87 47.1318 3.96 47.1318 5.47C47.1318 7.07 48.2318 8.1 49.7018 8.1C50.4618 8.1 51.1218 7.82 51.5318 7.44L51.2018 7.03C50.8818 7.32 50.3618 7.58 49.7218 7.58C48.5518 7.58 47.7618 6.76 47.7218 5.54H51.8618V5.34ZM49.5518 3.39C50.4218 3.39 51.1818 3.86 51.2418 5.02H47.7518C47.9018 4.01 48.5818 3.39 49.5518 3.39ZM55.5709 2.87C54.7509 2.87 54.2009 3.2 53.8009 3.68V3.63L53.7309 2.97H53.2009V8H53.8009V4.36C54.1509 3.77 54.7009 3.44 55.4309 3.44C55.5809 3.44 55.7209 3.45 55.8209 3.47L55.9409 2.89C55.8509 2.88 55.7209 2.87 55.5709 2.87ZM59.3119 2.87C58.5619 2.87 57.9719 3.15 57.5619 3.48V0.399999L56.9619 0.47V8H57.5119L57.5519 7.39C57.9619 7.8 58.5819 8.1 59.2619 8.1C60.6219 8.1 61.6419 7.06 61.6419 5.41C61.6419 3.77 60.6019 2.87 59.3119 2.87ZM59.1419 7.57C58.4919 7.57 57.9819 7.28 57.5619 6.82V3.97C57.8419 3.74 58.3719 3.39 59.1719 3.39C60.3419 3.39 61.0319 4.19 61.0319 5.41C61.0319 6.72 60.3119 7.57 59.1419 7.57ZM65.278 2.87C64.458 2.87 63.908 3.2 63.508 3.68V3.63L63.438 2.97H62.908V8H63.508V4.36C63.858 3.77 64.408 3.44 65.138 3.44C65.288 3.44 65.428 3.45 65.528 3.47L65.648 2.89C65.558 2.88 65.428 2.87 65.278 2.87ZM68.2285 2.87C67.4985 2.87 66.8985 3.06 66.5185 3.28L66.6685 3.74C66.9985 3.56 67.5185 3.39 68.1685 3.39C69.0885 3.39 69.5385 3.75 69.5385 4.7V5.13C69.1685 5.01 68.7285 4.92 68.2085 4.92C66.8185 4.92 65.9785 5.48 65.9785 6.58C65.9785 7.5 66.6685 8.1 67.7185 8.1C68.6585 8.1 69.2185 7.68 69.5385 7.39L69.5985 8H70.1385V4.61C70.1385 3.4 69.4285 2.87 68.2285 2.87ZM67.8285 7.61C67.1085 7.61 66.5785 7.25 66.5785 6.58C66.5785 5.79 67.2185 5.42 68.2185 5.42C68.7485 5.42 69.1585 5.5 69.5385 5.62V6.81C69.1785 7.19 68.6685 7.61 67.8285 7.61ZM75.3201 2.97V6.82C74.9901 7.15 74.3801 7.57 73.5701 7.57C72.7101 7.57 72.1201 7.16 72.1201 6.11V2.97H71.5201V6.19C71.5201 7.52 72.3401 8.1 73.4401 8.1C74.4201 8.1 74.9601 7.7 75.3201 7.39L75.3801 8H75.9201V2.97H75.3201ZM81.5904 7.44L81.2504 7.03C80.9304 7.31 80.4204 7.58 79.7804 7.58C78.5704 7.58 77.7904 6.67 77.7904 5.5C77.7904 4.3 78.5704 3.39 79.7804 3.39C80.4304 3.39 80.9004 3.64 81.2504 3.94L81.5904 3.53C81.1404 3.12 80.5204 2.87 79.7804 2.87C78.2104 2.87 77.1904 4.02 77.1904 5.5C77.1904 6.95 78.2104 8.1 79.7804 8.1C80.5404 8.1 81.1604 7.83 81.5904 7.44ZM85.3705 2.87C84.5105 2.87 83.8605 3.24 83.4505 3.55V0.399999L82.8505 0.47V8H83.4505V4.05C83.7905 3.78 84.4405 3.36 85.2305 3.36C86.1005 3.36 86.7005 3.81 86.7005 4.86V8H87.3005V4.78C87.3005 3.45 86.4705 2.87 85.3705 2.87ZM94.5472 4.12C95.1972 3.84 95.5772 3.33 95.5772 2.58C95.5772 1.69 95.0372 0.85 93.1872 0.85C92.6472 0.85 91.7872 0.86 91.0572 0.9V8C91.6472 8.03 92.4072 8.05 93.2172 8.05C95.1072 8.05 96.0572 7.23 96.0572 5.9C96.0572 4.95 95.4872 4.35 94.5472 4.12ZM91.6672 1.42C92.0572 1.4 92.6572 1.39 93.1872 1.39C94.4472 1.39 94.9572 1.84 94.9572 2.63C94.9572 3.39 94.4972 3.97 93.0972 3.97C92.6772 3.97 92.1672 3.96 91.6672 3.95V1.42ZM93.1772 7.51C92.6072 7.51 92.0272 7.5 91.6672 7.48V4.51C92.1672 4.49 92.7172 4.48 93.3472 4.48C94.6172 4.48 95.4472 4.94 95.4472 5.88C95.4472 6.75 94.9472 7.51 93.1772 7.51ZM101.803 5.34C101.803 3.53 100.653 2.87 99.5032 2.87C98.0532 2.87 97.0732 3.96 97.0732 5.47C97.0732 7.07 98.1732 8.1 99.6432 8.1C100.403 8.1 101.063 7.82 101.473 7.44L101.143 7.03C100.823 7.32 100.303 7.58 99.6632 7.58C98.4932 7.58 97.7032 6.76 97.6632 5.54H101.803V5.34ZM99.4932 3.39C100.363 3.39 101.123 3.86 101.183 5.02H97.6932C97.8432 4.01 98.5232 3.39 99.4932 3.39ZM105.662 2.87C104.782 2.87 104.142 3.26 103.742 3.59L103.672 2.97H103.142V8H103.742V4.08C104.082 3.81 104.732 3.39 105.522 3.39C106.392 3.39 106.992 3.82 106.992 4.86V8H107.592V4.78C107.592 3.45 106.762 2.87 105.662 2.87ZM112.741 2.97H108.821V3.49H111.851L108.741 7.85V8H112.711V7.48H109.661L112.741 3.15V2.97ZM114.323 1.56C114.573 1.56 114.763 1.37 114.763 1.12C114.763 0.88 114.573 0.679999 114.323 0.679999C114.073 0.679999 113.883 0.88 113.883 1.12C113.883 1.37 114.073 1.56 114.323 1.56ZM114.023 8H114.623V2.97H114.023V8ZM118.69 2.87C117.81 2.87 117.17 3.26 116.77 3.59L116.7 2.97H116.17V8H116.77V4.08C117.11 3.81 117.76 3.39 118.55 3.39C119.42 3.39 120.02 3.82 120.02 4.86V8H120.62V4.78C120.62 3.45 119.79 2.87 118.69 2.87ZM122.539 4.28C122.789 4.28 122.989 4.09 122.989 3.84C122.989 3.59 122.789 3.39 122.539 3.39C122.289 3.39 122.099 3.59 122.099 3.84C122.099 4.09 122.289 4.28 122.539 4.28ZM122.539 8.1C122.789 8.1 122.989 7.91 122.989 7.66C122.989 7.41 122.789 7.21 122.539 7.21C122.289 7.21 122.099 7.41 122.099 7.66C122.099 7.91 122.289 8.1 122.539 8.1ZM126.718 8H127.318V0.399999L126.718 0.47V8ZM128.038 5.11L130.508 2.97H129.758L127.398 5.04V5.15L130.078 8H130.768L128.038 5.11ZM133.569 8.1C135.139 8.1 136.169 6.95 136.169 5.5C136.169 4.02 135.139 2.87 133.569 2.87C131.999 2.87 130.979 4.02 130.979 5.5C130.979 6.95 131.999 8.1 133.569 8.1ZM133.569 7.58C132.359 7.58 131.579 6.65 131.579 5.5C131.579 4.32 132.359 3.39 133.569 3.39C134.789 3.39 135.559 4.32 135.559 5.5C135.559 6.65 134.789 7.58 133.569 7.58ZM143.129 2.87C142.319 2.87 141.639 3.26 141.209 3.67C140.939 3.19 140.439 2.87 139.709 2.87C138.899 2.87 138.369 3.24 138.029 3.57L137.969 2.97H137.439V8H138.039V4.06C138.299 3.8 138.809 3.39 139.569 3.39C140.559 3.39 140.889 4.06 140.889 4.96V8H141.489V4.78C141.489 4.52 141.449 4.27 141.379 4.04C141.749 3.7 142.289 3.39 142.989 3.39C144.079 3.39 144.329 4.15 144.329 4.96V8H144.929V4.78C144.929 3.74 144.379 2.87 143.129 2.87ZM148.755 2.87C148.005 2.87 147.415 3.15 147.005 3.48V0.399999L146.405 0.47V8H146.955L146.995 7.39C147.405 7.8 148.025 8.1 148.705 8.1C150.065 8.1 151.085 7.06 151.085 5.41C151.085 3.77 150.045 2.87 148.755 2.87ZM148.585 7.57C147.935 7.57 147.425 7.28 147.005 6.82V3.97C147.285 3.74 147.815 3.39 148.615 3.39C149.785 3.39 150.475 4.19 150.475 5.41C150.475 6.72 149.755 7.57 148.585 7.57ZM152.721 1.56C152.971 1.56 153.161 1.37 153.161 1.12C153.161 0.88 152.971 0.679999 152.721 0.679999C152.471 0.679999 152.281 0.88 152.281 1.12C152.281 1.37 152.471 1.56 152.721 1.56ZM152.421 8H153.021V2.97H152.421V8ZM157.088 2.87C156.208 2.87 155.568 3.26 155.168 3.59L155.098 2.97H154.568V8H155.168V4.08C155.508 3.81 156.158 3.39 156.948 3.39C157.818 3.39 158.418 3.82 158.418 4.86V8H159.018V4.78C159.018 3.45 158.188 2.87 157.088 2.87ZM160.807 1.56C161.057 1.56 161.247 1.37 161.247 1.12C161.247 0.88 161.057 0.679999 160.807 0.679999C160.557 0.679999 160.367 0.88 160.367 1.12C160.367 1.37 160.557 1.56 160.807 1.56ZM160.507 8H161.107V2.97H160.507V8ZM167.184 5.34C167.184 3.53 166.034 2.87 164.884 2.87C163.434 2.87 162.454 3.96 162.454 5.47C162.454 7.07 163.554 8.1 165.024 8.1C165.784 8.1 166.444 7.82 166.854 7.44L166.524 7.03C166.204 7.32 165.684 7.58 165.044 7.58C163.874 7.58 163.084 6.76 163.044 5.54H167.184V5.34ZM164.874 3.39C165.744 3.39 166.504 3.86 166.564 5.02H163.074C163.224 4.01 163.904 3.39 164.874 3.39ZM170.893 2.87C170.073 2.87 169.523 3.2 169.123 3.68V3.63L169.053 2.97H168.523V8H169.123V4.36C169.473 3.77 170.023 3.44 170.753 3.44C170.903 3.44 171.043 3.45 171.143 3.47L171.263 2.89C171.173 2.88 171.043 2.87 170.893 2.87ZM174.474 7.53C174.324 7.57 174.144 7.59 173.964 7.59C173.134 7.59 173.024 6.89 173.024 6.33V3.49H174.494V2.97H173.024V1.6L172.424 1.67V2.97H171.824L171.744 3.49H172.424V6.4C172.424 7.52 172.984 8.1 173.914 8.1C174.154 8.1 174.404 8.06 174.594 8.01L174.474 7.53ZM179.986 7.46V0.9H179.886L177.666 1.79L177.856 2.29L179.376 1.75V7.46H177.756V8H181.546V7.46H179.986ZM183.088 7.22C182.848 7.22 182.658 7.41 182.658 7.65C182.658 7.83 182.758 7.98 182.908 8.05L182.558 9.3H182.898L183.438 7.98C183.478 7.88 183.528 7.76 183.528 7.65C183.528 7.41 183.328 7.22 183.088 7.22ZM187.466 3.51C186.716 3.51 186.066 3.75 185.526 4.2C185.616 2.94 186.166 1.36 187.666 1.36C188.276 1.36 188.856 1.59 189.146 1.79L189.486 1.34C189.106 1.07 188.426 0.8 187.646 0.8C185.756 0.8 184.896 2.77 184.896 4.5C184.896 6.63 185.576 8.1 187.386 8.1C188.916 8.1 189.786 7.05 189.786 5.69C189.786 4.41 188.956 3.51 187.466 3.51ZM187.406 7.54C186.106 7.54 185.576 6.51 185.516 4.87C185.886 4.49 186.576 4.06 187.446 4.06C188.526 4.06 189.156 4.67 189.156 5.7C189.156 6.7 188.586 7.54 187.406 7.54ZM193.841 8V0.399999L193.241 0.47V8H193.841ZM198.929 0.9H198.339L195.219 8H195.809L198.929 0.9ZM202.281 7.46V0.9H202.181L199.961 1.79L200.151 2.29L201.671 1.75V7.46H200.051V8H203.841V7.46H202.281ZM207.453 8.1C209.173 8.1 210.283 6.48 210.283 4.45C210.283 2.43 209.173 0.8 207.453 0.8C205.733 0.8 204.623 2.43 204.623 4.45C204.623 6.48 205.733 8.1 207.453 8.1ZM207.453 7.54C206.083 7.54 205.253 6.16 205.253 4.45C205.253 2.74 206.083 1.36 207.453 1.36C208.823 1.36 209.653 2.74 209.653 4.45C209.653 6.16 208.823 7.54 207.453 7.54ZM214.25 8.1C215.97 8.1 217.08 6.48 217.08 4.45C217.08 2.43 215.97 0.8 214.25 0.8C212.53 0.8 211.42 2.43 211.42 4.45C211.42 6.48 212.53 8.1 214.25 8.1ZM214.25 7.54C212.88 7.54 212.05 6.16 212.05 4.45C212.05 2.74 212.88 1.36 214.25 1.36C215.62 1.36 216.45 2.74 216.45 4.45C216.45 6.16 215.62 7.54 214.25 7.54ZM220.575 8H221.175V0.399999L220.575 0.47V8ZM221.895 5.11L224.365 2.97H223.615L221.255 5.04V5.15L223.935 8H224.625L221.895 5.11ZM231.254 2.87C230.444 2.87 229.764 3.26 229.334 3.67C229.064 3.19 228.564 2.87 227.834 2.87C227.024 2.87 226.494 3.24 226.154 3.57L226.094 2.97H225.564V8H226.164V4.06C226.424 3.8 226.934 3.39 227.694 3.39C228.684 3.39 229.014 4.06 229.014 4.96V8H229.614V4.78C229.614 4.52 229.574 4.27 229.504 4.04C229.874 3.7 230.414 3.39 231.114 3.39C232.204 3.39 232.454 4.15 232.454 4.96V8H233.054V4.78C233.054 3.74 232.504 2.87 231.254 2.87ZM235.03 4.28C235.28 4.28 235.48 4.09 235.48 3.84C235.48 3.59 235.28 3.39 235.03 3.39C234.78 3.39 234.59 3.59 234.59 3.84C234.59 4.09 234.78 4.28 235.03 4.28ZM235.07 7.22C234.83 7.22 234.64 7.41 234.64 7.65C234.64 7.83 234.74 7.98 234.89 8.05L234.54 9.3H234.88L235.42 7.98C235.46 7.88 235.51 7.76 235.51 7.65C235.51 7.41 235.31 7.22 235.07 7.22ZM4.19 20.1C5.18 20.1 6.03 19.72 6.61 19.17L6.24 18.76C5.71 19.23 5.02 19.54 4.19 19.54C2.43 19.54 1.26 18.13 1.26 16.45C1.26 14.77 2.43 13.36 4.19 13.36C4.96 13.36 5.63 13.63 6.14 14.06L6.51 13.64C5.92 13.12 5.1 12.8 4.19 12.8C2.09 12.8 0.64 14.44 0.64 16.45C0.64 18.46 2.09 20.1 4.19 20.1ZM11.1429 20.1C13.2229 20.1 14.6829 18.46 14.6829 16.45C14.6829 14.44 13.2229 12.8 11.1429 12.8C9.06289 12.8 7.60289 14.44 7.60289 16.45C7.60289 18.46 9.06289 20.1 11.1429 20.1ZM11.1429 19.54C9.39289 19.54 8.22289 18.13 8.22289 16.45C8.22289 14.77 9.39289 13.36 11.1429 13.36C12.8929 13.36 14.0629 14.77 14.0629 16.45C14.0629 18.13 12.8929 19.54 11.1429 19.54ZM18.3823 21.3H15.5623V20.76L16.7123 19.64C16.9856 19.38 17.1889 19.17 17.3223 19.01C17.4623 18.8433 17.5556 18.6967 17.6023 18.57C17.6556 18.4367 17.6823 18.2967 17.6823 18.15C17.6823 17.9367 17.6189 17.7767 17.4923 17.67C17.3723 17.5633 17.2123 17.51 17.0123 17.51C16.8123 17.51 16.6289 17.55 16.4623 17.63C16.3023 17.7033 16.1356 17.8067 15.9623 17.94L15.6123 17.48C15.8056 17.3133 16.0156 17.18 16.2423 17.08C16.4756 16.98 16.7356 16.93 17.0223 16.93C17.4489 16.93 17.7823 17.0367 18.0223 17.25C18.2689 17.4567 18.3923 17.7433 18.3923 18.11C18.3923 18.4367 18.2923 18.73 18.0923 18.99C17.8989 19.25 17.6156 19.5567 17.2423 19.91L16.4323 20.68H18.3823V21.3ZM19.5184 17.11V17.62H22.7184V17.11H19.5184ZM24.968 19.46V16.53H28.238V15.98H24.968V13.44H28.478V12.9H24.358V20H28.508V19.46H24.968ZM35.5316 14.87C34.7216 14.87 34.0416 15.26 33.6116 15.67C33.3416 15.19 32.8416 14.87 32.1116 14.87C31.3016 14.87 30.7716 15.24 30.4316 15.57L30.3716 14.97H29.8416V20H30.4416V16.06C30.7016 15.8 31.2116 15.39 31.9716 15.39C32.9616 15.39 33.2916 16.06 33.2916 16.96V20H33.8916V16.78C33.8916 16.52 33.8516 16.27 33.7816 16.04C34.1516 15.7 34.6916 15.39 35.3916 15.39C36.4816 15.39 36.7316 16.15 36.7316 16.96V20H37.3316V16.78C37.3316 15.74 36.7816 14.87 35.5316 14.87ZM39.1276 13.56C39.3776 13.56 39.5676 13.37 39.5676 13.12C39.5676 12.88 39.3776 12.68 39.1276 12.68C38.8776 12.68 38.6876 12.88 38.6876 13.12C38.6876 13.37 38.8776 13.56 39.1276 13.56ZM38.8276 20H39.4276V14.97H38.8276V20ZM42.2844 20.1C43.3644 20.1 44.0544 19.61 44.0544 18.76C44.0544 17.88 43.3444 17.54 42.6444 17.22L42.2644 17.04C41.8444 16.85 41.3444 16.57 41.3444 16.11C41.3444 15.64 41.7544 15.39 42.3644 15.39C42.8244 15.39 43.2344 15.53 43.5244 15.69L43.8044 15.24C43.4444 15.02 42.9344 14.87 42.3544 14.87C41.3044 14.87 40.7444 15.37 40.7444 16.13C40.7444 16.89 41.4144 17.26 42.0344 17.55L42.4044 17.73C43.0044 18.01 43.4444 18.24 43.4444 18.77C43.4444 19.31 42.9644 19.58 42.2744 19.58C41.6644 19.58 41.2444 19.35 40.9744 19.17L40.6844 19.61C41.0044 19.85 41.5544 20.1 42.2844 20.1ZM46.5813 20.1C47.6613 20.1 48.3513 19.61 48.3513 18.76C48.3513 17.88 47.6413 17.54 46.9413 17.22L46.5613 17.04C46.1413 16.85 45.6413 16.57 45.6413 16.11C45.6413 15.64 46.0513 15.39 46.6613 15.39C47.1213 15.39 47.5313 15.53 47.8213 15.69L48.1013 15.24C47.7413 15.02 47.2313 14.87 46.6513 14.87C45.6013 14.87 45.0413 15.37 45.0413 16.13C45.0413 16.89 45.7113 17.26 46.3313 17.55L46.7013 17.73C47.3013 18.01 47.7413 18.24 47.7413 18.77C47.7413 19.31 47.2613 19.58 46.5713 19.58C45.9613 19.58 45.5413 19.35 45.2713 19.17L44.9813 19.61C45.3013 19.85 45.8512 20.1 46.5813 20.1ZM49.9381 13.56C50.1881 13.56 50.3781 13.37 50.3781 13.12C50.3781 12.88 50.1881 12.68 49.9381 12.68C49.6881 12.68 49.4981 12.88 49.4981 13.12C49.4981 13.37 49.6881 13.56 49.9381 13.56ZM49.6381 20H50.2381V14.97H49.6381V20ZM54.1749 20.1C55.7449 20.1 56.7749 18.95 56.7749 17.5C56.7749 16.02 55.7449 14.87 54.1749 14.87C52.6049 14.87 51.5849 16.02 51.5849 17.5C51.5849 18.95 52.6049 20.1 54.1749 20.1ZM54.1749 19.58C52.9649 19.58 52.1849 18.65 52.1849 17.5C52.1849 16.32 52.9649 15.39 54.1749 15.39C55.3949 15.39 56.1649 16.32 56.1649 17.5C56.1649 18.65 55.3949 19.58 54.1749 19.58ZM60.5647 14.87C59.6847 14.87 59.0447 15.26 58.6447 15.59L58.5747 14.97H58.0447V20H58.6447V16.08C58.9847 15.81 59.6347 15.39 60.4247 15.39C61.2947 15.39 61.8947 15.82 61.8947 16.86V20H62.4947V16.78C62.4947 15.45 61.6647 14.87 60.5647 14.87ZM68.4438 17.34C68.4438 15.53 67.2938 14.87 66.1438 14.87C64.6938 14.87 63.7138 15.96 63.7138 17.47C63.7138 19.07 64.8138 20.1 66.2838 20.1C67.0438 20.1 67.7038 19.82 68.1138 19.44L67.7838 19.03C67.4638 19.32 66.9438 19.58 66.3038 19.58C65.1338 19.58 64.3438 18.76 64.3038 17.54H68.4438V17.34ZM66.1338 15.39C67.0038 15.39 67.7638 15.86 67.8238 17.02H64.3338C64.4838 16.01 65.1638 15.39 66.1338 15.39ZM72.303 14.87C71.423 14.87 70.783 15.26 70.383 15.59L70.313 14.97H69.783V20H70.383V16.08C70.723 15.81 71.373 15.39 72.163 15.39C73.033 15.39 73.633 15.82 73.633 16.86V20H74.233V16.78C74.233 15.45 73.403 14.87 72.303 14.87ZM76.1521 16.28C76.4021 16.28 76.6021 16.09 76.6021 15.84C76.6021 15.59 76.4021 15.39 76.1521 15.39C75.9021 15.39 75.7121 15.59 75.7121 15.84C75.7121 16.09 75.9021 16.28 76.1521 16.28ZM76.1521 20.1C76.4021 20.1 76.6021 19.91 76.6021 19.66C76.6021 19.41 76.4021 19.21 76.1521 19.21C75.9021 19.21 75.7121 19.41 75.7121 19.66C75.7121 19.91 75.9021 20.1 76.1521 20.1ZM80.331 20H80.931V12.4L80.331 12.47V20ZM81.651 17.11L84.121 14.97H83.371L81.011 17.04V17.15L83.691 20H84.381L81.651 17.11ZM87.1827 20.1C88.7527 20.1 89.7827 18.95 89.7827 17.5C89.7827 16.02 88.7527 14.87 87.1827 14.87C85.6127 14.87 84.5927 16.02 84.5927 17.5C84.5927 18.95 85.6127 20.1 87.1827 20.1ZM87.1827 19.58C85.9727 19.58 85.1927 18.65 85.1927 17.5C85.1927 16.32 85.9727 15.39 87.1827 15.39C88.4027 15.39 89.1727 16.32 89.1727 17.5C89.1727 18.65 88.4027 19.58 87.1827 19.58ZM96.7425 14.87C95.9325 14.87 95.2525 15.26 94.8225 15.67C94.5525 15.19 94.0525 14.87 93.3225 14.87C92.5125 14.87 91.9825 15.24 91.6425 15.57L91.5825 14.97H91.0525V20H91.6525V16.06C91.9125 15.8 92.4225 15.39 93.1825 15.39C94.1725 15.39 94.5025 16.06 94.5025 16.96V20H95.1025V16.78C95.1025 16.52 95.0625 16.27 94.9925 16.04C95.3625 15.7 95.9025 15.39 96.6025 15.39C97.6925 15.39 97.9425 16.15 97.9425 16.96V20H98.5425V16.78C98.5425 15.74 97.9925 14.87 96.7425 14.87ZM102.369 14.87C101.619 14.87 101.029 15.15 100.619 15.48V12.4L100.019 12.47V20H100.569L100.609 19.39C101.019 19.8 101.639 20.1 102.319 20.1C103.679 20.1 104.699 19.06 104.699 17.41C104.699 15.77 103.659 14.87 102.369 14.87ZM102.199 19.57C101.549 19.57 101.039 19.28 100.619 18.82V15.97C100.899 15.74 101.429 15.39 102.229 15.39C103.399 15.39 104.089 16.19 104.089 17.41C104.089 18.72 103.369 19.57 102.199 19.57ZM106.335 13.56C106.585 13.56 106.775 13.37 106.775 13.12C106.775 12.88 106.585 12.68 106.335 12.68C106.085 12.68 105.895 12.88 105.895 13.12C105.895 13.37 106.085 13.56 106.335 13.56ZM106.035 20H106.635V14.97H106.035V20ZM110.701 14.87C109.821 14.87 109.181 15.26 108.781 15.59L108.711 14.97H108.181V20H108.781V16.08C109.121 15.81 109.771 15.39 110.561 15.39C111.431 15.39 112.031 15.82 112.031 16.86V20H112.631V16.78C112.631 15.45 111.801 14.87 110.701 14.87ZM114.421 13.56C114.671 13.56 114.861 13.37 114.861 13.12C114.861 12.88 114.671 12.68 114.421 12.68C114.171 12.68 113.981 12.88 113.981 13.12C113.981 13.37 114.171 13.56 114.421 13.56ZM114.121 20H114.721V14.97H114.121V20ZM120.797 17.34C120.797 15.53 119.647 14.87 118.497 14.87C117.047 14.87 116.067 15.96 116.067 17.47C116.067 19.07 117.167 20.1 118.637 20.1C119.397 20.1 120.057 19.82 120.467 19.44L120.137 19.03C119.817 19.32 119.297 19.58 118.657 19.58C117.487 19.58 116.697 18.76 116.657 17.54H120.797V17.34ZM118.487 15.39C119.357 15.39 120.117 15.86 120.177 17.02H116.687C116.837 16.01 117.517 15.39 118.487 15.39ZM124.506 14.87C123.686 14.87 123.136 15.2 122.736 15.68V15.63L122.666 14.97H122.136V20H122.736V16.36C123.086 15.77 123.636 15.44 124.366 15.44C124.516 15.44 124.656 15.45 124.756 15.47L124.876 14.89C124.786 14.88 124.656 14.87 124.506 14.87ZM128.087 19.53C127.937 19.57 127.757 19.59 127.577 19.59C126.747 19.59 126.637 18.89 126.637 18.33V15.49H128.107V14.97H126.637V13.6L126.037 13.67V14.97H125.437L125.357 15.49H126.037V18.4C126.037 19.52 126.597 20.1 127.527 20.1C127.767 20.1 128.017 20.06 128.207 20.01L128.087 19.53ZM133.78 16.09C134.62 15.82 135.09 15.17 135.09 14.41C135.09 13.42 134.31 12.8 133.11 12.8C132.36 12.8 131.64 13.05 131.2 13.35L131.54 13.79C131.97 13.52 132.55 13.36 133.1 13.36C133.96 13.36 134.47 13.78 134.47 14.47C134.47 15.17 133.91 15.82 132.35 15.82H132.22V16.36H132.35C133.99 16.36 134.69 17.2 134.69 18.07C134.69 18.74 134.26 19.54 132.98 19.54C132.21 19.54 131.65 19.25 131.46 19.11L131.12 19.56C131.61 19.9 132.28 20.1 132.98 20.1C134.54 20.1 135.31 19.07 135.31 18.01C135.31 17.04 134.63 16.38 133.78 16.09ZM138.091 20.1C139.721 20.1 140.571 18.94 140.571 17.67C140.571 16.17 139.331 15.51 137.611 15.51H137.271L137.381 13.44H140.091L140.171 12.9H136.811L136.631 16.05H137.491C138.351 16.05 139.941 16.18 139.941 17.72C139.941 18.67 139.351 19.54 138.091 19.54C137.501 19.54 136.961 19.36 136.581 19.11L136.251 19.56C136.701 19.88 137.381 20.1 138.091 20.1ZM148.572 14.87L147.062 15.08C146.772 14.94 146.422 14.87 146.022 14.87C144.762 14.87 144.012 15.59 144.012 16.69C144.012 17.22 144.192 17.67 144.522 17.98C144.172 18.15 143.822 18.41 143.822 18.85C143.822 19.21 144.042 19.43 144.372 19.57C143.962 19.87 143.662 20.25 143.662 20.78C143.662 21.46 144.162 22 145.952 22C147.722 22 148.522 21.46 148.522 20.58C148.522 19.53 147.392 19.43 146.122 19.32C145.072 19.24 144.422 19.17 144.422 18.71C144.422 18.47 144.612 18.32 144.832 18.21C145.152 18.4 145.562 18.5 146.042 18.5C147.312 18.5 148.042 17.78 148.042 16.69C148.042 16.16 147.862 15.71 147.532 15.4L148.572 15.38V14.87ZM146.022 18C145.142 18 144.602 17.48 144.602 16.69C144.602 15.89 145.142 15.37 146.022 15.37C146.912 15.37 147.452 15.89 147.452 16.69C147.452 17.48 146.912 18 146.022 18ZM147.912 20.6C147.912 21.05 147.532 21.48 145.952 21.48C144.562 21.48 144.252 21.14 144.252 20.68C144.252 20.24 144.542 19.91 144.842 19.7C145.172 19.77 145.542 19.8 145.902 19.83C147.192 19.94 147.912 20.01 147.912 20.6ZM153.167 12.9H152.577L149.457 20H150.047L153.167 12.9ZM154.56 20H155.16V12.4L154.56 12.47V20ZM155.88 17.11L158.35 14.97H157.6L155.24 17.04V17.15L157.92 20H158.61L155.88 17.11ZM165.239 14.87C164.429 14.87 163.749 15.26 163.319 15.67C163.049 15.19 162.549 14.87 161.819 14.87C161.009 14.87 160.479 15.24 160.139 15.57L160.079 14.97H159.549V20H160.149V16.06C160.409 15.8 160.919 15.39 161.679 15.39C162.669 15.39 162.999 16.06 162.999 16.96V20H163.599V16.78C163.599 16.52 163.559 16.27 163.489 16.04C163.859 15.7 164.399 15.39 165.099 15.39C166.189 15.39 166.439 16.15 166.439 16.96V20H167.039V16.78C167.039 15.74 166.489 14.87 165.239 14.87ZM168.965 20.1C169.215 20.1 169.415 19.91 169.415 19.66C169.415 19.41 169.215 19.21 168.965 19.21C168.715 19.21 168.525 19.41 168.525 19.66C168.525 19.91 168.715 20.1 168.965 20.1ZM175.984 12.9H173.214V20H175.984C178.124 20 179.434 18.35 179.434 16.45C179.434 14.55 178.124 12.9 175.984 12.9ZM175.844 18.87H174.554V14.03H175.844C177.224 14.03 178.054 15.12 178.054 16.45C178.054 17.78 177.224 18.87 175.844 18.87ZM185.18 20H186.6L183.27 12.74H182.99L179.67 20H181.08L181.64 18.67H184.62L185.18 20ZM182.07 17.64L183.13 15.12L184.19 17.64H182.07ZM191.822 12.9H186.142V14.03H188.312V20H189.652V14.03H191.822V12.9ZM192.927 16.87V17.84H196.347V16.87H192.927ZM202.441 12.9V15.69H199.251V12.9H197.911V20H199.251V16.83H202.441V20H203.781V12.9H202.441ZM205.999 13.77C206.399 13.77 206.719 13.46 206.719 13.05C206.719 12.64 206.399 12.32 205.999 12.32C205.589 12.32 205.269 12.64 205.269 13.05C205.269 13.46 205.589 13.77 205.999 13.77ZM205.349 20H206.649V14.93H205.349V20ZM211.194 14.83C210.364 14.83 209.724 15.21 209.304 15.56L209.204 14.93H208.034V20H209.334V16.4C209.694 16.12 210.194 15.88 210.724 15.88C211.404 15.88 211.804 16.21 211.804 16.98V20H213.104V16.81C213.104 15.44 212.334 14.83 211.194 14.83ZM219.873 14.93L218.843 17.9L217.613 14.93H217.353L216.123 17.9L215.093 14.93H213.743L215.953 20.16H216.103L217.483 17.25L218.853 20.16H219.003L221.223 14.93H219.873ZM226.674 17.5C226.674 15.69 225.584 14.83 224.204 14.83C222.564 14.83 221.564 16.02 221.564 17.5C221.564 19.03 222.674 20.1 224.304 20.1C225.314 20.1 226.034 19.69 226.394 19.35L225.794 18.63C225.494 18.89 225.024 19.13 224.414 19.13C223.544 19.13 222.954 18.63 222.854 17.72H226.674V17.5ZM224.194 15.78C224.864 15.78 225.324 16.16 225.424 16.89H222.894C223.054 16.13 223.564 15.78 224.194 15.78ZM228.577 13.77C228.977 13.77 229.297 13.46 229.297 13.05C229.297 12.64 228.977 12.32 228.577 12.32C228.167 12.32 227.847 12.64 227.847 13.05C227.847 13.46 228.167 13.77 228.577 13.77ZM227.927 20H229.227V14.93H227.927V20ZM232.202 20.1C233.412 20.1 234.202 19.58 234.202 18.6C234.202 17.68 233.502 17.34 232.722 16.99L232.312 16.8C232.012 16.67 231.702 16.51 231.702 16.22C231.702 15.9 232.002 15.77 232.392 15.77C232.842 15.77 233.262 15.95 233.482 16.08L234.012 15.29C233.692 15.08 233.092 14.83 232.292 14.83C231.162 14.83 230.412 15.34 230.412 16.32C230.412 17.17 231.152 17.51 231.832 17.82L232.242 18.01C232.652 18.19 232.902 18.33 232.902 18.64C232.902 19 232.582 19.15 232.102 19.15C231.522 19.15 231.092 18.92 230.812 18.71L230.292 19.51C230.602 19.78 231.272 20.1 232.202 20.1Z" fill="black"/>
</svg>
