<svg width="262" height="30" viewBox="0 0 262 30" fill="none" xmlns="http://www.w3.org/2000/svg">
<path d="M5.445 0.349999H1.29V11H5.445C8.655 11 10.62 8.525 10.62 5.675C10.62 2.825 8.655 0.349999 5.445 0.349999ZM5.235 9.305H3.3V2.045H5.235C7.305 2.045 8.55 3.68 8.55 5.675C8.55 7.67 7.305 9.305 5.235 9.305ZM17.7094 9.305V6.215H22.0294V4.565H17.7094V2.045H22.4944V0.349999H15.6994V11H22.5394V9.305H17.7094ZM35.7039 11L33.2439 7.16C34.7139 6.605 35.5089 5.42 35.5089 3.71C35.5089 1.355 34.0239 0.2 30.9939 0.2C30.1839 0.2 28.3539 0.289999 27.6039 0.349999V11H29.6139V7.4C30.1089 7.445 30.6339 7.49 31.1139 7.49H31.2189L33.3939 11H35.7039ZM29.6139 1.88C30.0489 1.85 30.4089 1.835 30.6189 1.835C32.7189 1.835 33.4989 2.33 33.4989 3.695C33.4989 5.12 32.6289 5.87 30.9339 5.87C30.5289 5.87 30.0489 5.825 29.6139 5.78V1.88ZM53.2985 0.349999V6.875L46.7435 0.169999H46.5935V11H48.5885V4.475L55.1435 11.18H55.2935V0.349999H53.2985ZM62.8078 9.305V6.215H67.1278V4.565H62.8078V2.045H67.5928V0.349999H60.7978V11H67.6378V9.305H62.8078ZM77.0373 11.15C80.3223 11.15 81.4473 9.26 81.4473 6.74V0.349999H79.4673V6.785C79.4673 8.51 78.7173 9.38 77.0373 9.38C75.3573 9.38 74.6223 8.51 74.6223 6.785V0.349999H72.6273V6.74C72.6273 9.245 73.7523 11.15 77.0373 11.15ZM88.8873 9.305V6.215H93.2073V4.565H88.8873V2.045H93.6723V0.349999H86.8773V11H93.7173V9.305H88.8873ZM109.823 11.15C111.533 11.15 112.808 10.505 113.753 9.62L112.613 8.345C111.863 8.975 110.963 9.38 109.853 9.38C107.663 9.38 106.448 7.745 106.448 5.675C106.448 3.59 107.678 1.97 109.838 1.97C110.903 1.97 111.773 2.345 112.448 2.9L113.603 1.61C112.703 0.8 111.428 0.2 109.808 0.2C106.553 0.2 104.378 2.615 104.378 5.675C104.378 8.69 106.493 11.15 109.823 11.15ZM122.956 11.15C126.241 11.15 127.366 9.26 127.366 6.74V0.349999H125.386V6.785C125.386 8.51 124.636 9.38 122.956 9.38C121.276 9.38 120.541 8.51 120.541 6.785V0.349999H118.546V6.74C118.546 9.245 119.671 11.15 122.956 11.15ZM136.216 0.2C135.016 0.2 133.561 0.274999 132.796 0.349999V11H134.806V7.625C135.271 7.685 135.766 7.715 136.276 7.715C139.246 7.715 140.701 6.23 140.701 3.83C140.701 1.37 139.291 0.2 136.216 0.2ZM136.096 6.095C135.646 6.095 135.226 6.05 134.806 6.005V1.88C135.226 1.85 135.691 1.835 136.126 1.835C137.881 1.835 138.691 2.39 138.691 3.845C138.691 5.33 137.791 6.095 136.096 6.095ZM153.723 11L151.263 7.16C152.733 6.605 153.528 5.42 153.528 3.71C153.528 1.355 152.043 0.2 149.013 0.2C148.203 0.2 146.373 0.289999 145.623 0.349999V11H147.633V7.4C148.128 7.445 148.653 7.49 149.133 7.49H149.238L151.413 11H153.723ZM147.633 1.88C148.068 1.85 148.428 1.835 148.638 1.835C150.738 1.835 151.518 2.33 151.518 3.695C151.518 5.12 150.648 5.87 148.953 5.87C148.548 5.87 148.068 5.825 147.633 5.78V1.88ZM165.722 11H167.852L162.857 0.11H162.437L157.457 11H159.572L160.412 9.005H164.882L165.722 11ZM161.057 7.46L162.647 3.68L164.237 7.46H161.057ZM180.241 9.305V0.349999H178.231V11H184.711V9.305H180.241ZM191.428 9.305V6.215H195.748V4.565H191.428V2.045H196.213V0.349999H189.418V11H196.258V9.305H191.428ZM206.333 11.15C209.633 11.15 211.763 8.69 211.763 5.675C211.763 2.66 209.633 0.2 206.333 0.2C203.033 0.2 200.903 2.66 200.903 5.675C200.903 8.69 203.033 11.15 206.333 11.15ZM206.333 9.38C204.263 9.38 202.973 7.76 202.973 5.675C202.973 3.59 204.263 1.97 206.333 1.97C208.403 1.97 209.693 3.59 209.693 5.675C209.693 7.76 208.403 9.38 206.333 9.38ZM223.55 0.349999V6.875L216.995 0.169999H216.845V11H218.84V4.475L225.395 11.18H225.545V0.349999H223.55ZM4.185 29.15C6.57 29.15 8.1 27.95 8.1 26.15C8.1 24.44 6.855 23.72 5.04 22.85L4.41 22.55C3.57 22.145 2.76 21.71 2.76 20.93C2.76 20.285 3.315 19.865 4.425 19.865C5.505 19.865 6.33 20.285 6.705 20.525L7.755 19.25C7.095 18.77 5.955 18.2 4.38 18.2C2.355 18.2 0.75 19.205 0.75 20.99C0.75 22.73 2.07 23.48 3.6 24.245L4.26 24.56C5.37 25.1 6.09 25.505 6.09 26.24C6.09 27.035 5.325 27.485 4.095 27.485C3.105 27.485 2.19 27.11 1.635 26.705L0.57 27.98C1.335 28.61 2.685 29.15 4.185 29.15ZM16.3801 18.2C15.1801 18.2 13.7251 18.275 12.9601 18.35V29H14.9701V25.625C15.4351 25.685 15.9301 25.715 16.4401 25.715C19.4101 25.715 20.8651 24.23 20.8651 21.83C20.8651 19.37 19.4551 18.2 16.3801 18.2ZM16.2601 24.095C15.8101 24.095 15.3901 24.05 14.9701 24.005V19.88C15.3901 19.85 15.8551 19.835 16.2901 19.835C18.0451 19.835 18.8551 20.39 18.8551 21.845C18.8551 23.33 17.9551 24.095 16.2601 24.095ZM30.7975 29.15C34.0975 29.15 36.2275 26.69 36.2275 23.675C36.2275 20.66 34.0975 18.2 30.7975 18.2C27.4975 18.2 25.3675 20.66 25.3675 23.675C25.3675 26.69 27.4975 29.15 30.7975 29.15ZM30.7975 27.38C28.7275 27.38 27.4375 25.76 27.4375 23.675C27.4375 21.59 28.7275 19.97 30.7975 19.97C32.8675 19.97 34.1575 21.59 34.1575 23.675C34.1575 25.76 32.8675 27.38 30.7975 27.38ZM49.4101 29L46.9501 25.16C48.4201 24.605 49.2151 23.42 49.2151 21.71C49.2151 19.355 47.7301 18.2 44.7001 18.2C43.8901 18.2 42.0601 18.29 41.3101 18.35V29H43.3201V25.4C43.8151 25.445 44.3401 25.49 44.8201 25.49H44.9251L47.1001 29H49.4101ZM43.3201 19.88C43.7551 19.85 44.1151 19.835 44.3251 19.835C46.4251 19.835 47.2051 20.33 47.2051 21.695C47.2051 23.12 46.3351 23.87 44.6401 23.87C44.2351 23.87 43.7551 23.825 43.3201 23.78V19.88ZM61.821 18.35H53.301V20.045H56.556V29H58.566V20.045H61.821V18.35ZM69.3032 29.15C71.6882 29.15 73.2182 27.95 73.2182 26.15C73.2182 24.44 71.9732 23.72 70.1582 22.85L69.5282 22.55C68.6882 22.145 67.8782 21.71 67.8782 20.93C67.8782 20.285 68.4332 19.865 69.5432 19.865C70.6232 19.865 71.4482 20.285 71.8232 20.525L72.8732 19.25C72.2132 18.77 71.0732 18.2 69.4982 18.2C67.4732 18.2 65.8682 19.205 65.8682 20.99C65.8682 22.73 67.1882 23.48 68.7182 24.245L69.3782 24.56C70.4882 25.1 71.2082 25.505 71.2082 26.24C71.2082 27.035 70.4432 27.485 69.2132 27.485C68.2232 27.485 67.3082 27.11 66.7532 26.705L65.6882 27.98C66.4532 28.61 67.8032 29.15 69.3032 29.15ZM85.6153 18.35H77.0953V20.045H80.3503V29H82.3603V20.045H85.6153V18.35ZM94.4361 29.15C97.7361 29.15 99.8661 26.69 99.8661 23.675C99.8661 20.66 97.7361 18.2 94.4361 18.2C91.1361 18.2 89.0061 20.66 89.0061 23.675C89.0061 26.69 91.1361 29.15 94.4361 29.15ZM94.4361 27.38C92.3661 27.38 91.0761 25.76 91.0761 23.675C91.0761 21.59 92.3661 19.97 94.4361 19.97C96.5061 19.97 97.7961 21.59 97.7961 23.675C97.7961 25.76 96.5061 27.38 94.4361 27.38ZM109.284 29.15C112.569 29.15 113.694 27.26 113.694 24.74V18.35H111.714V24.785C111.714 26.51 110.964 27.38 109.284 27.38C107.604 27.38 106.869 26.51 106.869 24.785V18.35H104.874V24.74C104.874 27.245 105.999 29.15 109.284 29.15ZM127.224 29L124.764 25.16C126.234 24.605 127.029 23.42 127.029 21.71C127.029 19.355 125.544 18.2 122.514 18.2C121.704 18.2 119.874 18.29 119.124 18.35V29H121.134V25.4C121.629 25.445 122.154 25.49 122.634 25.49H122.739L124.914 29H127.224ZM121.134 19.88C121.569 19.85 121.929 19.835 122.139 19.835C124.239 19.835 125.019 20.33 125.019 21.695C125.019 23.12 124.149 23.87 122.454 23.87C122.049 23.87 121.569 23.825 121.134 23.78V19.88ZM134.108 27.305V24.215H138.428V22.565H134.108V20.045H138.893V18.35H132.098V29H138.938V27.305H134.108ZM152.102 29L149.642 25.16C151.112 24.605 151.907 23.42 151.907 21.71C151.907 19.355 150.422 18.2 147.392 18.2C146.582 18.2 144.752 18.29 144.002 18.35V29H146.012V25.4C146.507 25.445 147.032 25.49 147.512 25.49H147.617L149.792 29H152.102ZM146.012 19.88C146.447 19.85 146.807 19.835 147.017 19.835C149.117 19.835 149.897 20.33 149.897 21.695C149.897 23.12 149.027 23.87 147.332 23.87C146.927 23.87 146.447 23.825 146.012 23.78V19.88ZM165.002 27.305V24.215H169.322V22.565H165.002V20.045H169.787V18.35H162.992V29H169.832V27.305H165.002ZM174.656 24.305V25.76H179.786V24.305H174.656ZM191.853 18.35V22.535H187.068V18.35H185.058V29H187.068V24.245H191.853V29H193.863V18.35H191.853ZM205.694 18.35L203.069 23L200.444 18.35H198.254L202.064 24.59V29H204.059V24.59L207.869 18.35H205.694ZM218.445 23.105C219.36 22.67 219.87 21.95 219.87 20.84C219.87 19.46 218.925 18.245 216.015 18.245C215.04 18.245 213.495 18.275 212.28 18.35V29C213.315 29.06 214.605 29.105 216.12 29.105C219.03 29.105 220.59 27.8 220.59 25.76C220.59 24.38 219.72 23.45 218.445 23.105ZM214.275 19.835C214.74 19.805 215.31 19.805 215.88 19.805C217.26 19.805 217.89 20.255 217.89 21.155C217.89 21.98 217.425 22.625 215.73 22.625C215.235 22.625 214.74 22.61 214.275 22.595V19.835ZM215.955 27.545C215.34 27.545 214.74 27.545 214.275 27.515V24.155C214.77 24.125 215.34 24.11 216 24.11C217.605 24.11 218.58 24.62 218.58 25.7C218.58 26.765 217.89 27.545 215.955 27.545ZM233.573 29L231.113 25.16C232.583 24.605 233.378 23.42 233.378 21.71C233.378 19.355 231.893 18.2 228.863 18.2C228.053 18.2 226.223 18.29 225.473 18.35V29H227.483V25.4C227.978 25.445 228.503 25.49 228.983 25.49H229.088L231.263 29H233.573ZM227.483 19.88C227.918 19.85 228.278 19.835 228.488 19.835C230.588 19.835 231.368 20.33 231.368 21.695C231.368 23.12 230.498 23.87 228.803 23.87C228.398 23.87 227.918 23.825 227.483 23.78V19.88ZM240.457 18.35H238.447V29H240.457V18.35ZM250.112 18.35H245.957V29H250.112C253.322 29 255.287 26.525 255.287 23.675C255.287 20.825 253.322 18.35 250.112 18.35ZM249.902 27.305H247.967V20.045H249.902C251.972 20.045 253.217 21.68 253.217 23.675C253.217 25.67 251.972 27.305 249.902 27.305ZM260.489 29.15C261.104 29.15 261.584 28.67 261.584 28.055C261.584 27.455 261.104 26.96 260.489 26.96C259.874 26.96 259.394 27.455 259.394 28.055C259.394 28.67 259.874 29.15 260.489 29.15Z" fill="black"/>
</svg>
