<svg width="180" height="32" viewBox="0 0 180 32" fill="none" xmlns="http://www.w3.org/2000/svg">
<path d="M5.58 0.349999H1.245V11H5.58C8.85 11 10.8 8.555 10.8 5.675C10.8 2.795 8.85 0.349999 5.58 0.349999ZM5.355 8.93H3.735V2.42H5.355C7.17 2.42 8.25 3.8 8.25 5.675C8.25 7.55 7.17 8.93 5.355 8.93ZM20.2702 7.355C20.2702 4.64 18.7702 3.215 16.4602 3.215C13.8052 3.215 12.3502 5.075 12.3502 7.28C12.3502 9.485 13.9702 11.15 16.5802 11.15C18.2902 11.15 19.3852 10.445 19.8802 9.98L18.8302 8.75C18.3652 9.14 17.7052 9.44 16.8502 9.44C15.6652 9.44 14.9152 8.885 14.7502 7.685H20.2702V7.355ZM16.4602 4.865C17.3152 4.865 17.8852 5.33 18.0352 6.335H14.7952C15.0052 5.255 15.6802 4.865 16.4602 4.865ZM26.7645 3.215C25.6695 3.215 24.8895 3.71 24.3645 4.28L24.2145 3.365H22.0545V11H24.4545V5.93C24.9495 5.48 25.5495 5.21 26.2395 5.21C26.6295 5.21 26.8695 5.255 27.0045 5.3L27.4695 3.29C27.3495 3.26 27.0495 3.215 26.7645 3.215ZM37.0436 3.215C35.8436 3.215 34.8686 3.77 34.1936 4.325L34.0436 3.365H31.8836V11H34.2836V5.735C34.8086 5.375 35.4386 5.105 36.0836 5.105C37.0136 5.105 37.4486 5.57 37.4486 6.56V11H39.8486V6.245C39.8486 4.13 38.7986 3.215 37.0436 3.215ZM49.3913 7.355C49.3913 4.64 47.8913 3.215 45.5813 3.215C42.9263 3.215 41.4713 5.075 41.4713 7.28C41.4713 9.485 43.0913 11.15 45.7013 11.15C47.4113 11.15 48.5063 10.445 49.0013 9.98L47.9513 8.75C47.4863 9.14 46.8263 9.44 45.9713 9.44C44.7863 9.44 44.0363 8.885 43.8713 7.685H49.3913V7.355ZM45.5813 4.865C46.4363 4.865 47.0063 5.33 47.1563 6.335H43.9163C44.1263 5.255 44.8013 4.865 45.5813 4.865ZM56.5905 3.365V8.675C56.0955 9.035 55.4955 9.275 54.8805 9.275C53.9505 9.275 53.5005 8.81 53.5005 7.82V3.365H51.1005V8.225C51.1005 10.34 52.2705 11.15 54.0255 11.15C55.1955 11.15 56.0955 10.655 56.6955 10.13L56.8455 11H58.9905V3.365H56.5905ZM68.61 7.355C68.61 4.64 67.11 3.215 64.8 3.215C62.145 3.215 60.69 5.075 60.69 7.28C60.69 9.485 62.31 11.15 64.92 11.15C66.63 11.15 67.725 10.445 68.22 9.98L67.17 8.75C66.705 9.14 66.045 9.44 65.19 9.44C64.005 9.44 63.255 8.885 63.09 7.685H68.61V7.355ZM64.8 4.865C65.655 4.865 66.225 5.33 66.375 6.335H63.135C63.345 5.255 64.02 4.865 64.8 4.865ZM78.7962 11.15C80.5812 11.15 81.8262 10.49 82.8312 9.605L81.4362 8.045C80.7012 8.645 79.8612 8.99 78.8562 8.99C76.8462 8.99 75.8562 7.58 75.8562 5.69C75.8562 3.755 76.8762 2.36 78.8262 2.36C79.8312 2.36 80.6412 2.705 81.2562 3.2L82.6662 1.625C81.7812 0.844999 80.5062 0.2 78.7812 0.2C75.4812 0.2 73.2912 2.57 73.2912 5.675C73.2912 8.69 75.3762 11.15 78.7962 11.15ZM89.1679 11.15C92.6179 11.15 93.7429 9.14 93.7429 6.575V0.349999H91.2979V6.665C91.2979 8.165 90.6679 8.99 89.1679 8.99C87.6679 8.99 87.0379 8.165 87.0379 6.665V0.349999H84.5929V6.575C84.5929 9.125 85.7179 11.15 89.1679 11.15ZM99.9476 0.2C98.4026 0.2 96.9326 0.274999 96.1376 0.349999V11H98.6276V7.76C99.0776 7.805 99.5576 7.835 100.053 7.835C103.023 7.835 104.493 6.365 104.493 3.935C104.493 1.415 103.098 0.2 99.9476 0.2ZM99.8126 5.915C99.4076 5.915 99.0176 5.885 98.6276 5.84V2.18C99.0176 2.15 99.4526 2.135 99.8876 2.135C101.298 2.135 102.048 2.63 102.048 3.935C102.048 5.225 101.238 5.915 99.8126 5.915ZM112.3 11H115.135L112.75 7.175C114.085 6.59 114.79 5.42 114.79 3.785C114.79 1.4 113.29 0.2 110.2 0.2C109.435 0.2 107.32 0.274999 106.435 0.349999V11H108.925V7.535C109.375 7.58 109.84 7.61 110.29 7.61L112.3 11ZM108.925 2.18C109.3 2.15 109.66 2.135 109.9 2.135C111.64 2.135 112.345 2.6 112.345 3.785C112.345 5.015 111.565 5.69 110.08 5.69C109.72 5.69 109.3 5.645 108.925 5.615V2.18ZM124.092 11H126.687L121.602 0.139999H120.987L115.887 11H118.482L119.157 9.365H123.417L124.092 11ZM119.907 7.55L121.287 4.22L122.667 7.55H119.907ZM133.623 8.93V0.349999H131.133V11H137.838V8.93H133.623ZM146.759 7.355C146.759 4.64 145.259 3.215 142.949 3.215C140.294 3.215 138.839 5.075 138.839 7.28C138.839 9.485 140.459 11.15 143.069 11.15C144.779 11.15 145.874 10.445 146.369 9.98L145.319 8.75C144.854 9.14 144.194 9.44 143.339 9.44C142.154 9.44 141.404 8.885 141.239 7.685H146.759V7.355ZM142.949 4.865C143.804 4.865 144.374 5.33 144.524 6.335H141.284C141.494 5.255 142.169 4.865 142.949 4.865ZM152.444 11.15C155.069 11.15 156.629 9.425 156.629 7.19C156.629 4.94 155.069 3.215 152.444 3.215C149.819 3.215 148.244 4.94 148.244 7.19C148.244 9.425 149.819 11.15 152.444 11.15ZM152.444 9.44C151.379 9.44 150.704 8.675 150.704 7.19C150.704 5.705 151.379 4.925 152.444 4.925C153.509 4.925 154.169 5.705 154.169 7.19C154.169 8.675 153.509 9.44 152.444 9.44ZM163.489 3.215C162.289 3.215 161.314 3.77 160.639 4.325L160.489 3.365H158.329V11H160.729V5.735C161.254 5.375 161.884 5.105 162.529 5.105C163.459 5.105 163.894 5.57 163.894 6.56V11H166.294V6.245C166.294 4.13 165.244 3.215 163.489 3.215ZM4.365 29.15C7.065 29.15 8.4 27.725 8.4 26.015C8.4 24.275 7.215 23.555 5.4 22.685L4.68 22.34C3.81 21.92 3.195 21.605 3.195 21.005C3.195 20.54 3.6 20.18 4.53 20.18C5.565 20.18 6.42 20.645 6.765 20.855L8.04 19.385C7.425 18.905 6.195 18.2 4.425 18.2C2.265 18.2 0.75 19.355 0.75 21.125C0.75 22.88 1.89 23.6 3.66 24.455L4.395 24.815C5.34 25.265 5.94 25.595 5.94 26.18C5.94 26.78 5.355 27.17 4.23 27.17C3.3 27.17 2.34 26.75 1.83 26.39L0.54 27.86C1.29 28.52 2.73 29.15 4.365 29.15ZM14.8284 21.215C13.8834 21.215 13.0434 21.545 12.3684 22.1L12.2484 21.365H10.0884V31.85H12.4884V28.865C12.9684 29.03 13.5384 29.15 14.1834 29.15C16.1784 29.15 18.0684 27.935 18.0684 25.04C18.0684 22.55 16.7334 21.215 14.8284 21.215ZM13.5984 27.605C13.2384 27.605 12.8484 27.53 12.4884 27.41V23.435C12.9084 23.18 13.3884 23 13.9134 23C15.0234 23 15.6084 23.675 15.6084 25.13C15.6084 26.84 14.8584 27.605 13.5984 27.605ZM23.6546 29.15C26.2796 29.15 27.8396 27.425 27.8396 25.19C27.8396 22.94 26.2796 21.215 23.6546 21.215C21.0296 21.215 19.4546 22.94 19.4546 25.19C19.4546 27.425 21.0296 29.15 23.6546 29.15ZM23.6546 27.44C22.5896 27.44 21.9146 26.675 21.9146 25.19C21.9146 23.705 22.5896 22.925 23.6546 22.925C24.7196 22.925 25.3796 23.705 25.3796 25.19C25.3796 26.675 24.7196 27.44 23.6546 27.44ZM34.2498 21.215C33.1548 21.215 32.3748 21.71 31.8498 22.28L31.6998 21.365H29.5398V29H31.9398V23.93C32.4348 23.48 33.0348 23.21 33.7248 23.21C34.1148 23.21 34.3548 23.255 34.4898 23.3L34.9548 21.29C34.8348 21.26 34.5348 21.215 34.2498 21.215ZM40.792 27.275C40.657 27.305 40.357 27.335 40.162 27.335C39.232 27.335 39.112 26.705 39.112 25.85V23.075H40.957V21.365H39.112V19.16L36.742 19.415V21.365H35.992L35.707 23.075H36.742V25.94C36.742 28.01 37.702 29.15 39.847 29.15C40.282 29.15 40.777 29.09 41.137 29.03L40.792 27.275ZM45.3163 29.15C47.2963 29.15 48.4363 28.28 48.4363 26.825C48.4363 25.43 47.3563 24.89 46.1863 24.35L45.5713 24.065C45.2113 23.9 44.8663 23.72 44.8663 23.375C44.8663 23.015 45.2263 22.85 45.7363 22.85C46.4263 22.85 47.0563 23.165 47.3113 23.315L48.2563 21.965C47.8363 21.68 46.8463 21.215 45.4963 21.215C43.7113 21.215 42.5263 22.04 42.5263 23.6C42.5263 24.905 43.6663 25.43 44.7163 25.91L45.3313 26.18C45.7963 26.39 46.0663 26.555 46.0663 26.9C46.0663 27.29 45.7513 27.5 45.0763 27.5C44.3113 27.5 43.6663 27.2 43.2163 26.885L42.3163 28.265C42.7813 28.655 43.8463 29.15 45.3163 29.15ZM54.4297 27.275C54.2947 27.305 53.9947 27.335 53.7997 27.335C52.8697 27.335 52.7497 26.705 52.7497 25.85V23.075H54.5947V21.365H52.7497V19.16L50.3797 19.415V21.365H49.6297L49.3447 23.075H50.3797V25.94C50.3797 28.01 51.3397 29.15 53.4847 29.15C53.9197 29.15 54.4147 29.09 54.7747 29.03L54.4297 27.275ZM59.9535 29.15C62.5785 29.15 64.1385 27.425 64.1385 25.19C64.1385 22.94 62.5785 21.215 59.9535 21.215C57.3285 21.215 55.7535 22.94 55.7535 25.19C55.7535 27.425 57.3285 29.15 59.9535 29.15ZM59.9535 27.44C58.8885 27.44 58.2135 26.675 58.2135 25.19C58.2135 23.705 58.8885 22.925 59.9535 22.925C61.0185 22.925 61.6785 23.705 61.6785 25.19C61.6785 26.675 61.0185 27.44 59.9535 27.44ZM71.2536 21.365V26.675C70.7586 27.035 70.1586 27.275 69.5436 27.275C68.6136 27.275 68.1636 26.81 68.1636 25.82V21.365H65.7636V26.225C65.7636 28.34 66.9336 29.15 68.6886 29.15C69.8586 29.15 70.7586 28.655 71.3586 28.13L71.5086 29H73.6536V21.365H71.2536ZM80.3631 21.215C79.2681 21.215 78.4881 21.71 77.9631 22.28L77.8131 21.365H75.6531V29H78.0531V23.93C78.5481 23.48 79.1481 23.21 79.8381 23.21C80.2281 23.21 80.4681 23.255 80.6031 23.3L81.0681 21.29C80.9481 21.26 80.6481 21.215 80.3631 21.215ZM89.4547 25.355C89.4547 22.64 87.9547 21.215 85.6447 21.215C82.9897 21.215 81.5347 23.075 81.5347 25.28C81.5347 27.485 83.1547 29.15 85.7647 29.15C87.4747 29.15 88.5697 28.445 89.0647 27.98L88.0147 26.75C87.5497 27.14 86.8897 27.44 86.0347 27.44C84.8497 27.44 84.0997 26.885 83.9347 25.685H89.4547V25.355ZM85.6447 22.865C86.4997 22.865 87.0697 23.33 87.2197 24.335H83.9797C84.1897 23.255 84.8647 22.865 85.6447 22.865ZM95.949 21.215C94.854 21.215 94.074 21.71 93.549 22.28L93.399 21.365H91.239V29H93.639V23.93C94.134 23.48 94.734 23.21 95.424 23.21C95.814 23.21 96.054 23.255 96.189 23.3L96.654 21.29C96.534 21.26 96.234 21.215 95.949 21.215ZM108.688 25.355C108.688 22.64 107.188 21.215 104.878 21.215C102.223 21.215 100.768 23.075 100.768 25.28C100.768 27.485 102.388 29.15 104.998 29.15C106.708 29.15 107.803 28.445 108.298 27.98L107.248 26.75C106.783 27.14 106.123 27.44 105.268 27.44C104.083 27.44 103.333 26.885 103.168 25.685H108.688V25.355ZM104.878 22.865C105.733 22.865 106.303 23.33 106.453 24.335H103.213C103.423 23.255 104.098 22.865 104.878 22.865ZM110.532 24.17V25.88H115.872V24.17H110.532ZM124.799 18.35V22.385H120.659V18.35H118.169V29H120.659V24.485H124.799V29H127.304V18.35H124.799ZM136.16 18.35L133.79 22.79L131.405 18.35H128.75L132.56 24.695V29H135.02V24.695L138.83 18.35H136.16ZM146.768 23.12C147.683 22.7 148.238 21.965 148.238 20.81C148.238 19.37 147.173 18.215 144.278 18.215C143.123 18.215 141.473 18.275 140.273 18.35V29C141.308 29.06 142.673 29.135 144.323 29.135C147.353 29.135 148.928 27.8 148.928 25.76C148.928 24.38 148.028 23.45 146.768 23.12ZM142.748 20.105C143.168 20.06 143.588 20.045 144.038 20.045C145.133 20.045 145.793 20.39 145.793 21.23C145.793 22.025 145.313 22.565 143.978 22.565C143.483 22.565 143.093 22.55 142.748 22.535V20.105ZM144.113 27.305C143.603 27.305 143.168 27.29 142.748 27.245V24.35C143.153 24.335 143.663 24.32 144.203 24.32C145.703 24.32 146.438 24.83 146.438 25.7C146.438 26.675 145.748 27.305 144.113 27.305ZM156.714 29H159.549L157.164 25.175C158.499 24.59 159.204 23.42 159.204 21.785C159.204 19.4 157.704 18.2 154.614 18.2C153.849 18.2 151.734 18.275 150.849 18.35V29H153.339V25.535C153.789 25.58 154.254 25.61 154.704 25.61L156.714 29ZM153.339 20.18C153.714 20.15 154.074 20.135 154.314 20.135C156.054 20.135 156.759 20.6 156.759 21.785C156.759 23.015 155.979 23.69 154.494 23.69C154.134 23.69 153.714 23.645 153.339 23.615V20.18ZM163.886 18.35H161.396V29H163.886V18.35ZM170.712 18.35H166.377V29H170.712C173.982 29 175.932 26.555 175.932 23.675C175.932 20.795 173.982 18.35 170.712 18.35ZM170.487 26.93H168.867V20.42H170.487C172.302 20.42 173.382 21.8 173.382 23.675C173.382 25.55 172.302 26.93 170.487 26.93ZM178.265 29.15C178.97 29.15 179.525 28.61 179.525 27.905C179.525 27.215 178.97 26.66 178.265 26.66C177.575 26.66 177.035 27.215 177.035 27.905C177.035 28.61 177.575 29.15 178.265 29.15Z" fill="black"/>
</svg>
