<svg width="215" height="21" viewBox="0 0 215 21" fill="none" xmlns="http://www.w3.org/2000/svg">
<path d="M5.376 20.21C7.917 20.21 10.374 19.055 10.374 16.346C10.374 14.099 8.694 13.196 6.09 11.936L5.481 11.621C4.137 10.97 2.499 10.088 2.499 8.471C2.499 7.022 3.759 6.056 5.901 6.056C7.455 6.056 8.61 6.539 9.282 6.959L9.996 5.993C8.988 5.363 7.581 4.88 5.922 4.88C3.339 4.88 1.197 6.119 1.197 8.471C1.197 10.697 3.15 11.768 4.977 12.692L5.628 13.007C7.833 14.099 9.072 14.771 9.072 16.325C9.072 18.089 7.518 19.034 5.355 19.034C3.906 19.034 2.667 18.614 1.68 17.942L0.945 18.908C2.079 19.706 3.654 20.21 5.376 20.21ZM17.1559 4.88C16.0849 4.88 14.3839 4.964 13.3969 5.09V20H14.6779V14.645C15.4549 14.75 16.2739 14.834 17.0929 14.834C21.0829 14.834 23.0989 12.965 23.0989 9.626C23.0989 6.539 21.1669 4.88 17.1559 4.88ZM16.9879 13.658C16.1899 13.658 15.4339 13.574 14.6779 13.469V6.161C15.4129 6.098 16.2949 6.056 17.0299 6.056C20.3899 6.056 21.7759 7.274 21.7759 9.647C21.7759 12.293 20.2639 13.658 16.9879 13.658ZM32.9977 20.21C37.3657 20.21 40.4317 16.766 40.4317 12.545C40.4317 8.324 37.3657 4.88 32.9977 4.88C28.6297 4.88 25.5637 8.324 25.5637 12.545C25.5637 16.766 28.6297 20.21 32.9977 20.21ZM32.9977 19.034C29.3227 19.034 26.8657 16.073 26.8657 12.545C26.8657 9.017 29.3227 6.056 32.9977 6.056C36.6727 6.056 39.1297 9.017 39.1297 12.545C39.1297 16.073 36.6727 19.034 32.9977 19.034ZM53.4504 9.521C53.4504 6.518 51.4974 4.88 47.4654 4.88C46.2894 4.88 44.5674 5.006 43.7484 5.09V20H45.0294V14.372C45.8484 14.477 46.7304 14.561 47.5284 14.561C47.8014 14.561 48.0744 14.561 48.3474 14.54L51.9594 20H53.4504L49.6914 14.33C52.1064 13.742 53.4504 12.083 53.4504 9.521ZM47.4654 13.385C46.6884 13.385 45.8274 13.301 45.0294 13.196V6.161C45.9534 6.077 46.6674 6.056 47.0244 6.056C50.7624 6.056 52.1274 7.169 52.1274 9.521C52.1274 12.02 50.6364 13.385 47.4654 13.385ZM66.6131 5.09H55.0841V6.224H60.2081V20H61.4891V6.224H66.6131V5.09ZM70.7257 18.866V5.09H69.4447V20H77.7397V18.866H70.7257ZM81.7794 5.09H80.4984V20H81.7794V5.09ZM92.5324 20.21C94.6114 20.21 96.3964 19.412 97.6144 18.257L96.8374 17.396C95.7244 18.383 94.2754 19.034 92.5324 19.034C88.8364 19.034 86.3794 16.073 86.3794 12.545C86.3794 9.017 88.8364 6.056 92.5324 6.056C94.1494 6.056 95.5564 6.623 96.6274 7.526L97.4044 6.644C96.1654 5.552 94.4434 4.88 92.5324 4.88C88.1224 4.88 85.0774 8.324 85.0774 12.545C85.0774 16.766 88.1224 20.21 92.5324 20.21ZM110.652 5.09V11.558H102.021V5.09H100.74V20H102.021V12.713H110.652V20H111.954V5.09H110.652ZM117.155 18.866V12.713H124.022V11.558H117.155V6.224H124.526V5.09H115.874V20H124.589V18.866H117.155ZM138.286 12.335V13.469H143.263V18.026C142.297 18.614 140.953 19.034 139.378 19.034C135.157 19.034 132.973 16.031 132.973 12.608C132.973 8.996 135.43 6.056 139.147 6.056C140.869 6.056 142.318 6.686 143.431 7.652L144.25 6.812C142.969 5.615 141.184 4.88 139.147 4.88C134.779 4.88 131.671 8.198 131.671 12.587C131.671 16.871 134.611 20.21 139.294 20.21C141.457 20.21 143.389 19.496 144.565 18.551V12.335H138.286ZM157.876 9.521C157.876 6.518 155.923 4.88 151.891 4.88C150.715 4.88 148.993 5.006 148.174 5.09V20H149.455V14.372C150.274 14.477 151.156 14.561 151.954 14.561C152.227 14.561 152.5 14.561 152.773 14.54L156.385 20H157.876L154.117 14.33C156.532 13.742 157.876 12.083 157.876 9.521ZM151.891 13.385C151.114 13.385 150.253 13.301 149.455 13.196V6.161C150.379 6.077 151.093 6.056 151.45 6.056C155.188 6.056 156.553 7.169 156.553 9.521C156.553 12.02 155.062 13.385 151.891 13.385ZM165.905 2.003C166.367 2.003 166.745 1.625 166.745 1.142C166.745 0.68 166.367 0.302 165.905 0.302C165.422 0.302 165.044 0.68 165.044 1.142C165.044 1.625 165.422 2.003 165.905 2.003ZM169.748 2.003C170.231 2.003 170.609 1.625 170.609 1.142C170.609 0.68 170.231 0.302 169.748 0.302C169.286 0.302 168.908 0.68 168.908 1.142C168.908 1.625 169.286 2.003 169.748 2.003ZM167.816 20.21C172.184 20.21 175.25 16.766 175.25 12.545C175.25 8.324 172.184 4.88 167.816 4.88C163.448 4.88 160.382 8.324 160.382 12.545C160.382 16.766 163.448 20.21 167.816 20.21ZM167.816 19.034C164.141 19.034 161.684 16.073 161.684 12.545C161.684 9.017 164.141 6.056 167.816 6.056C171.491 6.056 173.948 9.017 173.948 12.545C173.948 16.073 171.491 19.034 167.816 19.034ZM181.969 20.21C184.51 20.21 186.967 19.055 186.967 16.346C186.967 14.099 185.287 13.196 182.683 11.936L182.074 11.621C180.73 10.97 179.092 10.088 179.092 8.471C179.092 7.022 180.352 6.056 182.494 6.056C184.048 6.056 185.203 6.539 185.875 6.959L186.589 5.993C185.581 5.363 184.174 4.88 182.515 4.88C179.932 4.88 177.79 6.119 177.79 8.471C177.79 10.697 179.743 11.768 181.57 12.692L182.221 13.007C184.426 14.099 185.665 14.771 185.665 16.325C185.665 18.089 184.111 19.034 181.948 19.034C180.499 19.034 179.26 18.614 178.273 17.942L177.538 18.908C178.672 19.706 180.247 20.21 181.969 20.21ZM193.392 20.21C195.933 20.21 198.39 19.055 198.39 16.346C198.39 14.099 196.71 13.196 194.106 11.936L193.497 11.621C192.153 10.97 190.515 10.088 190.515 8.471C190.515 7.022 191.775 6.056 193.917 6.056C195.471 6.056 196.626 6.539 197.298 6.959L198.012 5.993C197.004 5.363 195.597 4.88 193.938 4.88C191.355 4.88 189.213 6.119 189.213 8.471C189.213 10.697 191.166 11.768 192.993 12.692L193.644 13.007C195.849 14.099 197.088 14.771 197.088 16.325C197.088 18.089 195.534 19.034 193.371 19.034C191.922 19.034 190.683 18.614 189.696 17.942L188.961 18.908C190.095 19.706 191.67 20.21 193.392 20.21ZM202.693 18.866V12.713H209.56V11.558H202.693V6.224H210.064V5.09H201.412V20H210.127V18.866H202.693ZM213.978 20.21C214.503 20.21 214.923 19.811 214.923 19.286C214.923 18.761 214.503 18.341 213.978 18.341C213.453 18.341 213.054 18.761 213.054 19.286C213.054 19.811 213.453 20.21 213.978 20.21Z" fill="black"/>
</svg>
