<svg width="231" height="21" viewBox="0 0 231 21" fill="none" xmlns="http://www.w3.org/2000/svg">
<path d="M5.376 20.21C7.917 20.21 10.374 19.055 10.374 16.346C10.374 14.099 8.694 13.196 6.09 11.936L5.481 11.621C4.137 10.97 2.499 10.088 2.499 8.471C2.499 7.022 3.759 6.056 5.901 6.056C7.455 6.056 8.61 6.539 9.282 6.959L9.996 5.993C8.988 5.363 7.581 4.88 5.922 4.88C3.339 4.88 1.197 6.119 1.197 8.471C1.197 10.697 3.15 11.768 4.977 12.692L5.628 13.007C7.833 14.099 9.072 14.771 9.072 16.325C9.072 18.089 7.518 19.034 5.355 19.034C3.906 19.034 2.667 18.614 1.68 17.942L0.945 18.908C2.079 19.706 3.654 20.21 5.376 20.21ZM18.1009 4.88C17.0299 4.88 15.3289 4.964 14.3419 5.09V20H15.6229V14.645C16.3999 14.75 17.2189 14.834 18.0379 14.834C22.0279 14.834 24.0439 12.965 24.0439 9.626C24.0439 6.539 22.1119 4.88 18.1009 4.88ZM17.9329 13.658C17.1349 13.658 16.3789 13.574 15.6229 13.469V6.161C16.3579 6.098 17.2399 6.056 17.9749 6.056C21.3349 6.056 22.7209 7.274 22.7209 9.647C22.7209 12.293 21.2089 13.658 17.9329 13.658ZM34.8877 20.21C39.2557 20.21 42.3217 16.766 42.3217 12.545C42.3217 8.324 39.2557 4.88 34.8877 4.88C30.5197 4.88 27.4537 8.324 27.4537 12.545C27.4537 16.766 30.5197 20.21 34.8877 20.21ZM34.8877 19.034C31.2127 19.034 28.7557 16.073 28.7557 12.545C28.7557 9.017 31.2127 6.056 34.8877 6.056C38.5627 6.056 41.0197 9.017 41.0197 12.545C41.0197 16.073 38.5627 19.034 34.8877 19.034ZM56.2854 9.521C56.2854 6.518 54.3324 4.88 50.3004 4.88C49.1244 4.88 47.4024 5.006 46.5834 5.09V20H47.8644V14.372C48.6834 14.477 49.5654 14.561 50.3634 14.561C50.6364 14.561 50.9094 14.561 51.1824 14.54L54.7944 20H56.2854L52.5264 14.33C54.9414 13.742 56.2854 12.083 56.2854 9.521ZM50.3004 13.385C49.5234 13.385 48.6624 13.301 47.8644 13.196V6.161C48.7884 6.077 49.5024 6.056 49.8594 6.056C53.5974 6.056 54.9624 7.169 54.9624 9.521C54.9624 12.02 53.4714 13.385 50.3004 13.385ZM70.3931 5.09H58.8641V6.224H63.9881V20H65.2691V6.224H70.3931V5.09ZM75.4507 18.866V5.09H74.1697V20H82.4647V18.866H75.4507ZM87.4494 5.09H86.1684V20H87.4494V5.09ZM99.1474 20.21C101.226 20.21 103.011 19.412 104.229 18.257L103.452 17.396C102.339 18.383 100.89 19.034 99.1474 19.034C95.4514 19.034 92.9944 16.073 92.9944 12.545C92.9944 9.017 95.4514 6.056 99.1474 6.056C100.764 6.056 102.171 6.623 103.242 7.526L104.019 6.644C102.78 5.552 101.058 4.88 99.1474 4.88C94.7374 4.88 91.6924 8.324 91.6924 12.545C91.6924 16.766 94.7374 20.21 99.1474 20.21ZM118.212 5.09V11.558H109.581V5.09H108.3V20H109.581V12.713H118.212V20H119.514V5.09H118.212ZM125.66 18.866V12.713H132.527V11.558H125.66V6.224H133.031V5.09H124.379V20H133.094V18.866H125.66ZM148.681 12.335V13.469H153.658V18.026C152.692 18.614 151.348 19.034 149.773 19.034C145.552 19.034 143.368 16.031 143.368 12.608C143.368 8.996 145.825 6.056 149.542 6.056C151.264 6.056 152.713 6.686 153.826 7.652L154.645 6.812C153.364 5.615 151.579 4.88 149.542 4.88C145.174 4.88 142.066 8.198 142.066 12.587C142.066 16.871 145.006 20.21 149.689 20.21C151.852 20.21 153.784 19.496 154.96 18.551V12.335H148.681ZM169.216 9.521C169.216 6.518 167.263 4.88 163.231 4.88C162.055 4.88 160.333 5.006 159.514 5.09V20H160.795V14.372C161.614 14.477 162.496 14.561 163.294 14.561C163.567 14.561 163.84 14.561 164.113 14.54L167.725 20H169.216L165.457 14.33C167.872 13.742 169.216 12.083 169.216 9.521ZM163.231 13.385C162.454 13.385 161.593 13.301 160.795 13.196V6.161C161.719 6.077 162.433 6.056 162.79 6.056C166.528 6.056 167.893 7.169 167.893 9.521C167.893 12.02 166.402 13.385 163.231 13.385ZM178.19 2.003C178.652 2.003 179.03 1.625 179.03 1.142C179.03 0.68 178.652 0.302 178.19 0.302C177.707 0.302 177.329 0.68 177.329 1.142C177.329 1.625 177.707 2.003 178.19 2.003ZM182.033 2.003C182.516 2.003 182.894 1.625 182.894 1.142C182.894 0.68 182.516 0.302 182.033 0.302C181.571 0.302 181.193 0.68 181.193 1.142C181.193 1.625 181.571 2.003 182.033 2.003ZM180.101 20.21C184.469 20.21 187.535 16.766 187.535 12.545C187.535 8.324 184.469 4.88 180.101 4.88C175.733 4.88 172.667 8.324 172.667 12.545C172.667 16.766 175.733 20.21 180.101 20.21ZM180.101 19.034C176.426 19.034 173.969 16.073 173.969 12.545C173.969 9.017 176.426 6.056 180.101 6.056C183.776 6.056 186.233 9.017 186.233 12.545C186.233 16.073 183.776 19.034 180.101 19.034ZM195.199 20.21C197.74 20.21 200.197 19.055 200.197 16.346C200.197 14.099 198.517 13.196 195.913 11.936L195.304 11.621C193.96 10.97 192.322 10.088 192.322 8.471C192.322 7.022 193.582 6.056 195.724 6.056C197.278 6.056 198.433 6.539 199.105 6.959L199.819 5.993C198.811 5.363 197.404 4.88 195.745 4.88C193.162 4.88 191.02 6.119 191.02 8.471C191.02 10.697 192.973 11.768 194.8 12.692L195.451 13.007C197.656 14.099 198.895 14.771 198.895 16.325C198.895 18.089 197.341 19.034 195.178 19.034C193.729 19.034 192.49 18.614 191.503 17.942L190.768 18.908C191.902 19.706 193.477 20.21 195.199 20.21ZM207.567 20.21C210.108 20.21 212.565 19.055 212.565 16.346C212.565 14.099 210.885 13.196 208.281 11.936L207.672 11.621C206.328 10.97 204.69 10.088 204.69 8.471C204.69 7.022 205.95 6.056 208.092 6.056C209.646 6.056 210.801 6.539 211.473 6.959L212.187 5.993C211.179 5.363 209.772 4.88 208.113 4.88C205.53 4.88 203.388 6.119 203.388 8.471C203.388 10.697 205.341 11.768 207.168 12.692L207.819 13.007C210.024 14.099 211.263 14.771 211.263 16.325C211.263 18.089 209.709 19.034 207.546 19.034C206.097 19.034 204.858 18.614 203.871 17.942L203.136 18.908C204.27 19.706 205.845 20.21 207.567 20.21ZM217.813 18.866V12.713H224.68V11.558H217.813V6.224H225.184V5.09H216.532V20H225.247V18.866H217.813ZM230.043 20.21C230.568 20.21 230.988 19.811 230.988 19.286C230.988 18.761 230.568 18.341 230.043 18.341C229.518 18.341 229.119 18.761 229.119 19.286C229.119 19.811 229.518 20.21 230.043 20.21Z" fill="black"/>
</svg>
