<svg width="240" height="80" viewBox="0 0 240 80" fill="none" xmlns="http://www.w3.org/2000/svg">
<path d="M10.404 36H11.592L5.976 22.842H5.868L0.252 36H1.422L2.79 32.742H9.036L10.404 36ZM3.186 31.77L5.922 25.254L8.64 31.77H3.186ZM18.7668 36.18C22.4208 36.18 23.5728 34.056 23.5728 31.176V23.22H22.4748V31.194C22.4748 33.786 21.4308 35.172 18.7668 35.172C16.1028 35.172 15.0588 33.786 15.0588 31.194V23.22H13.9608V31.176C13.9608 34.056 15.1128 36.18 18.7668 36.18ZM31.9953 23.22H27.6753V36H31.9953C35.7033 36 38.1873 32.994 38.1873 29.61C38.1873 26.226 35.7033 23.22 31.9953 23.22ZM31.8513 35.028H28.7733V24.192H31.8513C35.0013 24.192 37.0533 26.766 37.0533 29.61C37.0533 32.454 35.0013 35.028 31.8513 35.028ZM42.9251 23.22H41.8271V36H42.9251V23.22ZM60.2575 23.22V28.764H52.8595V23.22H51.7615V36H52.8595V29.754H60.2575V36H61.3735V23.22H60.2575ZM68.8022 26.766C67.4882 26.766 66.4082 27.108 65.7242 27.504L65.9942 28.332C66.5882 28.008 67.5242 27.702 68.6942 27.702C70.3502 27.702 71.1602 28.35 71.1602 30.06V30.834C70.4942 30.618 69.7022 30.456 68.7662 30.456C66.2642 30.456 64.7522 31.464 64.7522 33.444C64.7522 35.1 65.9942 36.18 67.8842 36.18C69.5762 36.18 70.5842 35.424 71.1602 34.902L71.2682 36H72.2402V29.898C72.2402 27.72 70.9622 26.766 68.8022 26.766ZM68.0822 35.298C66.7862 35.298 65.8322 34.65 65.8322 33.444C65.8322 32.022 66.9842 31.356 68.7842 31.356C69.7382 31.356 70.4762 31.5 71.1602 31.716V33.858C70.5122 34.542 69.5942 35.298 68.0822 35.298ZM85.869 26.766C84.411 26.766 83.187 27.468 82.413 28.206C81.927 27.342 81.027 26.766 79.713 26.766C78.255 26.766 77.301 27.432 76.689 28.026L76.581 26.946H75.627V36H76.707V28.908C77.175 28.44 78.093 27.702 79.461 27.702C81.243 27.702 81.837 28.908 81.837 30.528V36H82.917V30.204C82.917 29.736 82.845 29.286 82.719 28.872C83.385 28.26 84.357 27.702 85.617 27.702C87.579 27.702 88.029 29.07 88.029 30.528V36H89.109V30.204C89.109 28.332 88.119 26.766 85.869 26.766ZM96.8058 26.766C95.4558 26.766 94.3938 27.27 93.6558 27.864V22.32L92.5758 22.446V36H93.5658L93.6378 34.902C94.3758 35.64 95.4918 36.18 96.7158 36.18C99.1638 36.18 101 34.308 101 31.338C101 28.386 99.1278 26.766 96.8058 26.766ZM96.4998 35.226C95.3298 35.226 94.4118 34.704 93.6558 33.876V28.746C94.1598 28.332 95.1138 27.702 96.5538 27.702C98.6598 27.702 99.9018 29.142 99.9018 31.338C99.9018 33.696 98.6058 35.226 96.4998 35.226ZM110.839 26.946V33.876C110.245 34.47 109.147 35.226 107.689 35.226C106.141 35.226 105.079 34.488 105.079 32.598V26.946H103.999V32.742C103.999 35.136 105.475 36.18 107.455 36.18C109.219 36.18 110.191 35.46 110.839 34.902L110.947 36H111.919V26.946H110.839ZM119.641 26.766C118.165 26.766 117.175 27.36 116.455 28.224V28.134L116.329 26.946H115.375V36H116.455V29.448C117.085 28.386 118.075 27.792 119.389 27.792C119.659 27.792 119.911 27.81 120.091 27.846L120.307 26.802C120.145 26.784 119.911 26.766 119.641 26.766ZM130.512 26.766L127.794 27.144C127.272 26.892 126.642 26.766 125.922 26.766C123.654 26.766 122.304 28.062 122.304 30.042C122.304 30.996 122.628 31.806 123.222 32.364C122.592 32.67 121.962 33.138 121.962 33.93C121.962 34.578 122.358 34.974 122.952 35.226C122.214 35.766 121.674 36.45 121.674 37.404C121.674 38.628 122.574 39.6 125.796 39.6C128.982 39.6 130.422 38.628 130.422 37.044C130.422 35.154 128.388 34.974 126.102 34.776C124.212 34.632 123.042 34.506 123.042 33.678C123.042 33.246 123.384 32.976 123.78 32.778C124.356 33.12 125.094 33.3 125.958 33.3C128.244 33.3 129.558 32.004 129.558 30.042C129.558 29.088 129.234 28.278 128.64 27.72L130.512 27.684V26.766ZM125.922 32.4C124.338 32.4 123.366 31.464 123.366 30.042C123.366 28.602 124.338 27.666 125.922 27.666C127.524 27.666 128.496 28.602 128.496 30.042C128.496 31.464 127.524 32.4 125.922 32.4ZM129.324 37.08C129.324 37.89 128.64 38.664 125.796 38.664C123.294 38.664 122.736 38.052 122.736 37.224C122.736 36.432 123.258 35.838 123.798 35.46C124.392 35.586 125.058 35.64 125.706 35.694C128.028 35.892 129.324 36.018 129.324 37.08ZM143.317 29.43V30.402H147.583V34.308C146.755 34.812 145.603 35.172 144.253 35.172C140.635 35.172 138.763 32.598 138.763 29.664C138.763 26.568 140.869 24.048 144.055 24.048C145.531 24.048 146.773 24.588 147.727 25.416L148.429 24.696C147.331 23.67 145.801 23.04 144.055 23.04C140.311 23.04 137.647 25.884 137.647 29.646C137.647 33.318 140.167 36.18 144.181 36.18C146.035 36.18 147.691 35.568 148.699 34.758V29.43H143.317ZM162.484 26.766C161.026 26.766 159.802 27.468 159.028 28.206C158.542 27.342 157.642 26.766 156.328 26.766C154.87 26.766 153.916 27.432 153.304 28.026L153.196 26.946H152.242V36H153.322V28.908C153.79 28.44 154.708 27.702 156.076 27.702C157.858 27.702 158.452 28.908 158.452 30.528V36H159.532V30.204C159.532 29.736 159.46 29.286 159.334 28.872C160 28.26 160.972 27.702 162.232 27.702C164.194 27.702 164.644 29.07 164.644 30.528V36H165.724V30.204C165.724 28.332 164.734 26.766 162.484 26.766ZM173.421 26.766C172.071 26.766 171.009 27.27 170.271 27.864V22.32L169.191 22.446V36H170.181L170.253 34.902C170.991 35.64 172.107 36.18 173.331 36.18C175.779 36.18 177.615 34.308 177.615 31.338C177.615 28.386 175.743 26.766 173.421 26.766ZM173.115 35.226C171.945 35.226 171.027 34.704 170.271 33.876V28.746C170.775 28.332 171.729 27.702 173.169 27.702C175.275 27.702 176.517 29.142 176.517 31.338C176.517 33.696 175.221 35.226 173.115 35.226ZM189.56 23.22V28.764H182.162V23.22H181.064V36H182.162V29.754H189.56V36H190.676V23.22H189.56ZM10.134 43.22V53.408L1.764 43.04H1.692V56H2.79V45.83L11.16 56.18H11.232V43.22H10.134ZM23.2159 51.212C23.2159 47.954 21.1459 46.766 19.0759 46.766C16.4659 46.766 14.7019 48.728 14.7019 51.446C14.7019 54.326 16.6819 56.18 19.3279 56.18C20.6959 56.18 21.8839 55.676 22.6219 54.992L22.0279 54.254C21.4519 54.776 20.5159 55.244 19.3639 55.244C17.2579 55.244 15.8359 53.768 15.7639 51.572H23.2159V51.212ZM19.0579 47.702C20.6239 47.702 21.9919 48.548 22.0999 50.636H15.8179C16.0879 48.818 17.3119 47.702 19.0579 47.702ZM33.4204 42.446V47.774C32.6644 47.198 31.6384 46.748 30.4684 46.748C28.0024 46.748 26.0764 48.638 26.0764 51.59C26.0764 54.542 27.9484 56.18 30.2524 56.18C31.6384 56.18 32.7184 55.514 33.4384 54.668L33.4924 56H34.5004V42.32L33.4204 42.446ZM30.4144 55.226C28.3984 55.226 27.1564 53.804 27.1564 51.59C27.1564 49.232 28.5964 47.702 30.6664 47.702C31.8184 47.702 32.8084 48.206 33.4204 48.674V53.732C32.6284 54.686 31.6744 55.226 30.4144 55.226ZM45.0233 42.446V47.774C44.2673 47.198 43.2413 46.748 42.0713 46.748C39.6053 46.748 37.6793 48.638 37.6793 51.59C37.6793 54.542 39.5513 56.18 41.8553 56.18C43.2413 56.18 44.3213 55.514 45.0413 54.668L45.0953 56H46.1033V42.32L45.0233 42.446ZM42.0173 55.226C40.0013 55.226 38.7593 53.804 38.7593 51.59C38.7593 49.232 40.1993 47.702 42.2693 47.702C43.4213 47.702 44.4113 48.206 45.0233 48.674V53.732C44.2313 54.686 43.2773 55.226 42.0173 55.226ZM57.7963 51.212C57.7963 47.954 55.7263 46.766 53.6563 46.766C51.0463 46.766 49.2823 48.728 49.2823 51.446C49.2823 54.326 51.2623 56.18 53.9083 56.18C55.2763 56.18 56.4643 55.676 57.2023 54.992L56.6083 54.254C56.0323 54.776 55.0963 55.244 53.9443 55.244C51.8383 55.244 50.4163 53.768 50.3443 51.572H57.7963V51.212ZM53.6383 47.702C55.2043 47.702 56.5723 48.548 56.6803 50.636H50.3983C50.6683 48.818 51.8923 47.702 53.6383 47.702ZM65.2828 46.766C63.8068 46.766 62.8168 47.36 62.0968 48.224V48.134L61.9708 46.946H61.0168V56H62.0968V49.448C62.7268 48.386 63.7168 47.792 65.0308 47.792C65.3008 47.792 65.5528 47.81 65.7328 47.846L65.9488 46.802C65.7868 46.784 65.5528 46.766 65.2828 46.766ZM71.6205 43.238C72.1605 43.238 72.7005 43.364 73.0065 43.472L73.2945 42.662C72.8805 42.482 72.2145 42.32 71.5305 42.32C69.8565 42.32 68.8485 43.364 68.8485 45.38V46.946H67.7685L67.6245 47.882H68.8485V56H69.9285V47.882H72.5745V46.946H69.9285V45.506C69.9285 44.498 70.1265 43.238 71.6205 43.238ZM82.5505 51.212C82.5505 47.954 80.4805 46.766 78.4105 46.766C75.8005 46.766 74.0365 48.728 74.0365 51.446C74.0365 54.326 76.0165 56.18 78.6625 56.18C80.0305 56.18 81.2185 55.676 81.9565 54.992L81.3625 54.254C80.7865 54.776 79.8505 55.244 78.6985 55.244C76.5925 55.244 75.1705 53.768 75.0985 51.572H82.5505V51.212ZM78.3925 47.702C79.9585 47.702 81.3265 48.548 81.4345 50.636H75.1525C75.4225 48.818 76.6465 47.702 78.3925 47.702ZM86.941 56V42.32L85.861 42.446V56H86.941ZM97.4673 42.446V47.774C96.7113 47.198 95.6853 46.748 94.5153 46.748C92.0493 46.748 90.1233 48.638 90.1233 51.59C90.1233 54.542 91.9953 56.18 94.2993 56.18C95.6853 56.18 96.7653 55.514 97.4853 54.668L97.5393 56H98.5473V42.32L97.4673 42.446ZM94.4613 55.226C92.4453 55.226 91.2033 53.804 91.2033 51.59C91.2033 49.232 92.6433 47.702 94.7133 47.702C95.8653 47.702 96.8553 48.206 97.4673 48.674V53.732C96.6753 54.686 95.7213 55.226 94.4613 55.226ZM107.682 55.028L111.21 50.798C112.128 49.718 113.424 48.116 113.424 46.28C113.424 44.408 112.074 43.04 109.608 43.04C108.204 43.04 106.926 43.49 106.134 44.03L106.728 44.822C107.502 44.336 108.564 44.048 109.59 44.048C111.462 44.048 112.308 45.002 112.308 46.316C112.308 47.81 111.246 49.16 110.418 50.15L105.774 55.694V56H113.856V55.028H107.682ZM120.937 48.962C122.449 48.476 123.295 47.306 123.295 45.938C123.295 44.156 121.891 43.04 119.731 43.04C118.381 43.04 117.085 43.49 116.293 44.03L116.905 44.822C117.679 44.336 118.723 44.048 119.713 44.048C121.261 44.048 122.179 44.804 122.179 46.046C122.179 47.306 121.171 48.476 118.363 48.476H118.129V49.448H118.363C121.315 49.448 122.575 50.96 122.575 52.526C122.575 53.732 121.801 55.172 119.497 55.172C118.111 55.172 117.103 54.65 116.761 54.398L116.149 55.208C117.031 55.82 118.237 56.18 119.497 56.18C122.305 56.18 123.691 54.326 123.691 52.418C123.691 50.672 122.467 49.484 120.937 48.962ZM2.268 75.028L5.796 70.798C6.714 69.718 8.01 68.116 8.01 66.28C8.01 64.408 6.66 63.04 4.194 63.04C2.79 63.04 1.512 63.49 0.72 64.03L1.314 64.822C2.088 64.336 3.15 64.048 4.176 64.048C6.048 64.048 6.894 65.002 6.894 66.316C6.894 67.81 5.832 69.16 5.004 70.15L0.36 75.694V76H8.442V75.028H2.268ZM12.5175 75.028L16.0455 70.798C16.9635 69.718 18.2595 68.116 18.2595 66.28C18.2595 64.408 16.9095 63.04 14.4435 63.04C13.0395 63.04 11.7615 63.49 10.9695 64.03L11.5635 64.822C12.3375 64.336 13.3995 64.048 14.4255 64.048C16.2975 64.048 17.1435 65.002 17.1435 66.316C17.1435 67.81 16.0815 69.16 15.2535 70.15L10.6095 75.694V76H18.6915V75.028H12.5175ZM24.6029 76.18C27.5369 76.18 29.0669 74.092 29.0669 71.806C29.0669 69.106 26.8349 67.918 23.7389 67.918H23.1269L23.3249 64.192H28.2029L28.3469 63.22H22.2989L21.9749 68.89H23.5229C25.0709 68.89 27.9329 69.124 27.9329 71.896C27.9329 73.606 26.8709 75.172 24.6029 75.172C23.5409 75.172 22.5689 74.848 21.8849 74.398L21.2909 75.208C22.1009 75.784 23.3249 76.18 24.6029 76.18ZM33.1043 75.028L36.6323 70.798C37.5503 69.718 38.8463 68.116 38.8463 66.28C38.8463 64.408 37.4963 63.04 35.0303 63.04C33.6263 63.04 32.3483 63.49 31.5563 64.03L32.1503 64.822C32.9243 64.336 33.9863 64.048 35.0123 64.048C36.8843 64.048 37.7303 65.002 37.7303 66.316C37.7303 67.81 36.6683 69.16 35.8403 70.15L31.1963 75.694V76H39.2783V75.028H33.1043ZM46.3417 63.04C43.6057 63.04 42.0577 64.966 42.0577 67.324C42.0577 69.7 43.6057 71.302 46.2517 71.302C47.6557 71.302 48.7897 70.834 49.6897 70.042C49.5277 73.21 48.3037 75.172 45.8917 75.172C44.8657 75.172 43.8757 74.848 43.1917 74.398L42.5797 75.208C43.4077 75.784 44.6317 76.18 45.8917 76.18C49.0597 76.18 50.8237 73.66 50.8237 69.358C50.8237 65.758 49.5997 63.04 46.3417 63.04ZM46.2877 70.312C44.3797 70.312 43.1737 69.232 43.1737 67.324C43.1737 65.578 44.1997 64.048 46.3057 64.048C48.6817 64.048 49.6177 65.974 49.7077 68.872C49.0777 69.538 47.8897 70.312 46.2877 70.312ZM67.5011 63.22V68.764H60.1031V63.22H59.0051V76H60.1031V69.754H67.5011V76H68.6171V63.22H67.5011ZM76.0458 66.766C74.7318 66.766 73.6518 67.108 72.9678 67.504L73.2378 68.332C73.8318 68.008 74.7678 67.702 75.9378 67.702C77.5938 67.702 78.4038 68.35 78.4038 70.06V70.834C77.7378 70.618 76.9458 70.456 76.0098 70.456C73.5078 70.456 71.9958 71.464 71.9958 73.444C71.9958 75.1 73.2378 76.18 75.1278 76.18C76.8198 76.18 77.8278 75.424 78.4038 74.902L78.5118 76H79.4838V69.898C79.4838 67.72 78.2058 66.766 76.0458 66.766ZM75.3258 75.298C74.0298 75.298 73.0758 74.65 73.0758 73.444C73.0758 72.022 74.2278 71.356 76.0278 71.356C76.9818 71.356 77.7198 71.5 78.4038 71.716V73.858C77.7558 74.542 76.8378 75.298 75.3258 75.298ZM93.1126 66.766C91.6546 66.766 90.4306 67.468 89.6566 68.206C89.1706 67.342 88.2706 66.766 86.9566 66.766C85.4986 66.766 84.5446 67.432 83.9326 68.026L83.8246 66.946H82.8706V76H83.9506V68.908C84.4186 68.44 85.3366 67.702 86.7046 67.702C88.4866 67.702 89.0806 68.908 89.0806 70.528V76H90.1606V70.204C90.1606 69.736 90.0886 69.286 89.9626 68.872C90.6286 68.26 91.6006 67.702 92.8606 67.702C94.8226 67.702 95.2726 69.07 95.2726 70.528V76H96.3526V70.204C96.3526 68.332 95.3626 66.766 93.1126 66.766ZM104.049 66.766C102.699 66.766 101.637 67.27 100.899 67.864V62.32L99.8194 62.446V76H100.809L100.881 74.902C101.619 75.64 102.735 76.18 103.959 76.18C106.407 76.18 108.243 74.308 108.243 71.338C108.243 68.386 106.371 66.766 104.049 66.766ZM103.743 75.226C102.573 75.226 101.655 74.704 100.899 73.876V68.746C101.403 68.332 102.357 67.702 103.797 67.702C105.903 67.702 107.145 69.142 107.145 71.338C107.145 73.696 105.849 75.226 103.743 75.226ZM118.082 66.946V73.876C117.488 74.47 116.39 75.226 114.932 75.226C113.384 75.226 112.322 74.488 112.322 72.598V66.946H111.242V72.742C111.242 75.136 112.718 76.18 114.698 76.18C116.462 76.18 117.434 75.46 118.082 74.902L118.19 76H119.162V66.946H118.082ZM126.885 66.766C125.409 66.766 124.419 67.36 123.699 68.224V68.134L123.573 66.946H122.619V76H123.699V69.448C124.329 68.386 125.319 67.792 126.633 67.792C126.903 67.792 127.155 67.81 127.335 67.846L127.551 66.802C127.389 66.784 127.155 66.766 126.885 66.766ZM137.755 66.766L135.037 67.144C134.515 66.892 133.885 66.766 133.165 66.766C130.897 66.766 129.547 68.062 129.547 70.042C129.547 70.996 129.871 71.806 130.465 72.364C129.835 72.67 129.205 73.138 129.205 73.93C129.205 74.578 129.601 74.974 130.195 75.226C129.457 75.766 128.917 76.45 128.917 77.404C128.917 78.628 129.817 79.6 133.039 79.6C136.225 79.6 137.665 78.628 137.665 77.044C137.665 75.154 135.631 74.974 133.345 74.776C131.455 74.632 130.285 74.506 130.285 73.678C130.285 73.246 130.627 72.976 131.023 72.778C131.599 73.12 132.337 73.3 133.201 73.3C135.487 73.3 136.801 72.004 136.801 70.042C136.801 69.088 136.477 68.278 135.883 67.72L137.755 67.684V66.766ZM133.165 72.4C131.581 72.4 130.609 71.464 130.609 70.042C130.609 68.602 131.581 67.666 133.165 67.666C134.767 67.666 135.739 68.602 135.739 70.042C135.739 71.464 134.767 72.4 133.165 72.4ZM136.567 77.08C136.567 77.89 135.883 78.664 133.039 78.664C130.537 78.664 129.979 78.052 129.979 77.224C129.979 76.432 130.501 75.838 131.041 75.46C131.635 75.586 132.301 75.64 132.949 75.694C135.271 75.892 136.567 76.018 136.567 77.08Z" fill="black"/>
<path d="M7.614 18.18C9.756 18.18 11.25 17.388 12.456 16.326L10.782 14.454C9.9 15.174 8.892 15.588 7.686 15.588C5.274 15.588 4.086 13.896 4.086 11.628C4.086 9.306 5.31 7.632 7.65 7.632C8.856 7.632 9.828 8.046 10.566 8.64L12.258 6.75C11.196 5.814 9.666 5.04 7.596 5.04C3.636 5.04 1.008 7.884 1.008 11.61C1.008 15.228 3.51 18.18 7.614 18.18ZM20.96 18.18C25.1 18.18 26.45 15.768 26.45 12.69V5.22H23.516V12.798C23.516 14.598 22.76 15.588 20.96 15.588C19.16 15.588 18.404 14.598 18.404 12.798V5.22H15.47V12.69C15.47 15.75 16.82 18.18 20.96 18.18ZM34.7957 5.04C32.9417 5.04 31.1777 5.13 30.2237 5.22V18H33.2117V14.112C33.7517 14.166 34.3277 14.202 34.9217 14.202C38.4857 14.202 40.2497 12.438 40.2497 9.522C40.2497 6.498 38.5757 5.04 34.7957 5.04ZM34.6337 11.898C34.1477 11.898 33.6797 11.862 33.2117 11.808V7.416C33.6797 7.38 34.2017 7.362 34.7237 7.362C36.4157 7.362 37.3157 7.956 37.3157 9.522C37.3157 11.07 36.3437 11.898 34.6337 11.898ZM50.5191 18H53.9211L51.0591 13.41C52.6611 12.708 53.5071 11.304 53.5071 9.342C53.5071 6.48 51.7071 5.04 47.9991 5.04C47.0811 5.04 44.5431 5.13 43.4811 5.22V18H46.4691V13.842C47.0091 13.896 47.5671 13.932 48.1071 13.932L50.5191 18ZM46.4691 7.416C46.9191 7.38 47.3511 7.362 47.6391 7.362C49.7271 7.362 50.5731 7.92 50.5731 9.342C50.5731 10.818 49.6371 11.628 47.8551 11.628C47.4231 11.628 46.9191 11.574 46.4691 11.538V7.416ZM65.5694 18H68.6834L62.5814 4.968H61.8434L55.7234 18H58.8374L59.6474 16.038H64.7594L65.5694 18ZM60.5474 13.86L62.2034 9.864L63.8594 13.86H60.5474ZM81.4158 10.746V13.086H84.3138V15.318C83.7198 15.516 83.0178 15.66 82.2258 15.66C79.4718 15.66 78.4098 13.914 78.4098 11.664C78.4098 9.306 79.5978 7.632 81.8838 7.632C83.0538 7.632 84.0618 8.064 84.7998 8.676L86.5098 6.804C85.3938 5.814 83.8638 5.04 81.8478 5.04C77.9598 5.04 75.3318 7.866 75.3318 11.628C75.3318 15.228 77.6898 18.18 82.2078 18.18C84.3678 18.18 86.1498 17.496 87.0678 16.884V10.746H81.4158ZM95.0995 8.658C93.4795 8.658 91.8415 9.108 90.9775 9.504L91.4815 11.286C92.2015 11.016 93.3175 10.692 94.4515 10.692C95.6935 10.692 96.1975 11.268 96.1975 12.33V12.672C95.6575 12.564 95.0455 12.474 94.2895 12.474C91.7695 12.474 90.1495 13.428 90.1495 15.408C90.1495 17.1 91.3375 18.18 93.3355 18.18C94.7215 18.18 95.7295 17.568 96.3235 17.082L96.4855 18H99.0055V12.168C99.0055 9.72 97.5835 8.658 95.0995 8.658ZM93.0295 15.228C93.0295 14.418 93.6955 13.968 94.7395 13.968C95.2795 13.968 95.7475 14.04 96.1975 14.13V15.66C95.7475 16.056 95.1355 16.38 94.3435 16.38C93.4795 16.38 93.0295 15.948 93.0295 15.228ZM107.854 8.658C106.54 8.658 105.604 9.252 104.974 9.936L104.794 8.838H102.202V18H105.082V11.916C105.676 11.376 106.396 11.052 107.224 11.052C107.692 11.052 107.98 11.106 108.142 11.16L108.7 8.748C108.556 8.712 108.196 8.658 107.854 8.658ZM115.11 8.658C113.49 8.658 111.852 9.108 110.988 9.504L111.492 11.286C112.212 11.016 113.328 10.692 114.462 10.692C115.704 10.692 116.208 11.268 116.208 12.33V12.672C115.668 12.564 115.056 12.474 114.3 12.474C111.78 12.474 110.16 13.428 110.16 15.408C110.16 17.1 111.348 18.18 113.346 18.18C114.732 18.18 115.74 17.568 116.334 17.082L116.496 18H119.016V12.168C119.016 9.72 117.594 8.658 115.11 8.658ZM113.04 15.228C113.04 14.418 113.706 13.968 114.75 13.968C115.29 13.968 115.758 14.04 116.208 14.13V15.66C115.758 16.056 115.146 16.38 114.354 16.38C113.49 16.38 113.04 15.948 113.04 15.228ZM131.573 8.658L128.873 9.108C128.225 8.82 127.415 8.658 126.443 8.658C123.671 8.658 122.177 9.954 122.177 11.988C122.177 12.924 122.501 13.698 123.113 14.256C122.267 14.688 121.781 15.3 121.781 16.182C121.781 16.812 122.033 17.262 122.501 17.586C121.889 18.054 121.547 18.63 121.547 19.332C121.547 20.574 122.681 21.6 126.281 21.6C130.043 21.6 131.447 20.502 131.447 18.738C131.447 17.028 130.259 16.578 127.217 16.29C124.409 16.02 124.067 15.948 124.067 15.516C124.067 15.282 124.193 15.12 124.409 14.976C124.985 15.156 125.687 15.264 126.479 15.264C129.269 15.264 130.709 14.022 130.709 12.006C130.709 11.322 130.547 10.728 130.223 10.242L131.573 10.566V8.658ZM126.443 13.554C125.363 13.554 124.841 12.942 124.841 11.988C124.841 11.052 125.363 10.44 126.443 10.44C127.523 10.44 128.027 11.052 128.027 11.988C128.027 12.942 127.523 13.554 126.443 13.554ZM128.765 19.188C128.765 19.674 128.513 20.142 126.425 20.142C124.265 20.142 123.905 19.674 123.905 18.918C123.905 18.648 123.977 18.396 124.103 18.18C124.643 18.306 125.291 18.378 125.993 18.432C128.261 18.63 128.765 18.684 128.765 19.188ZM143.068 13.626C143.068 10.368 141.268 8.658 138.496 8.658C135.31 8.658 133.564 10.89 133.564 13.536C133.564 16.182 135.508 18.18 138.64 18.18C140.692 18.18 142.006 17.334 142.6 16.776L141.34 15.3C140.782 15.768 139.99 16.128 138.964 16.128C137.542 16.128 136.642 15.462 136.444 14.022H143.068V13.626ZM138.496 10.638C139.522 10.638 140.206 11.196 140.386 12.402H136.498C136.75 11.106 137.56 10.638 138.496 10.638ZM158.927 5.22V10.062H153.959V5.22H150.971V18H153.959V12.582H158.927V18H161.933V5.22H158.927ZM170.095 8.658C168.475 8.658 166.837 9.108 165.973 9.504L166.477 11.286C167.197 11.016 168.313 10.692 169.447 10.692C170.689 10.692 171.193 11.268 171.193 12.33V12.672C170.653 12.564 170.041 12.474 169.285 12.474C166.765 12.474 165.145 13.428 165.145 15.408C165.145 17.1 166.333 18.18 168.331 18.18C169.717 18.18 170.725 17.568 171.319 17.082L171.481 18H174.001V12.168C174.001 9.72 172.579 8.658 170.095 8.658ZM168.025 15.228C168.025 14.418 168.691 13.968 169.735 13.968C170.275 13.968 170.743 14.04 171.193 14.13V15.66C170.743 16.056 170.131 16.38 169.339 16.38C168.475 16.38 168.025 15.948 168.025 15.228ZM189.024 8.658C187.638 8.658 186.504 9.396 185.73 10.098C185.226 9.108 184.254 8.658 182.94 8.658C181.68 8.658 180.672 9.252 179.97 9.882L179.79 8.838H177.198V18H180.078V11.538C180.546 11.178 181.086 10.926 181.698 10.926C182.85 10.926 183.3 11.556 183.3 12.744V18H186.18V12.294C186.18 12.024 186.162 11.772 186.144 11.538C186.63 11.16 187.188 10.926 187.764 10.926C188.916 10.926 189.366 11.556 189.366 12.744V18H192.246V12.294C192.246 9.756 191.076 8.658 189.024 8.658ZM201.189 8.658C200.091 8.658 199.173 9 198.417 9.576V4.32L195.537 4.5V18H198.201L198.327 17.028C199.047 17.694 200.001 18.18 201.135 18.18C203.349 18.18 205.113 16.416 205.113 13.266C205.113 10.332 203.565 8.658 201.189 8.658ZM200.109 16.308C199.479 16.308 198.939 16.02 198.417 15.516V11.34C198.921 11.016 199.497 10.8 200.145 10.8C201.441 10.8 202.161 11.646 202.161 13.356C202.161 15.03 201.477 16.308 200.109 16.308ZM214.535 8.838V15.21C213.941 15.642 213.221 15.93 212.483 15.93C211.367 15.93 210.827 15.372 210.827 14.184V8.838H207.947V14.67C207.947 17.208 209.351 18.18 211.457 18.18C212.861 18.18 213.941 17.586 214.661 16.956L214.841 18H217.415V8.838H214.535ZM226.366 8.658C225.052 8.658 224.116 9.252 223.486 9.936L223.306 8.838H220.714V18H223.594V11.916C224.188 11.376 224.908 11.052 225.736 11.052C226.204 11.052 226.492 11.106 226.654 11.16L227.212 8.748C227.068 8.712 226.708 8.658 226.366 8.658ZM238.568 8.658L235.868 9.108C235.22 8.82 234.41 8.658 233.438 8.658C230.666 8.658 229.172 9.954 229.172 11.988C229.172 12.924 229.496 13.698 230.108 14.256C229.262 14.688 228.776 15.3 228.776 16.182C228.776 16.812 229.028 17.262 229.496 17.586C228.884 18.054 228.542 18.63 228.542 19.332C228.542 20.574 229.676 21.6 233.276 21.6C237.038 21.6 238.442 20.502 238.442 18.738C238.442 17.028 237.254 16.578 234.212 16.29C231.404 16.02 231.062 15.948 231.062 15.516C231.062 15.282 231.188 15.12 231.404 14.976C231.98 15.156 232.682 15.264 233.474 15.264C236.264 15.264 237.704 14.022 237.704 12.006C237.704 11.322 237.542 10.728 237.218 10.242L238.568 10.566V8.658ZM233.438 13.554C232.358 13.554 231.836 12.942 231.836 11.988C231.836 11.052 232.358 10.44 233.438 10.44C234.518 10.44 235.022 11.052 235.022 11.988C235.022 12.942 234.518 13.554 233.438 13.554ZM235.76 19.188C235.76 19.674 235.508 20.142 233.42 20.142C231.26 20.142 230.9 19.674 230.9 18.918C230.9 18.648 230.972 18.396 231.098 18.18C231.638 18.306 232.286 18.378 232.988 18.432C235.256 18.63 235.76 18.684 235.76 19.188Z" fill="black"/>
</svg>
